<svg xmlns="http://www.w3.org/2000/svg" xmlns:xlink="http://www.w3.org/1999/xlink" xmlns:lucid="lucid" width="1716.09" height="1594.2"><g transform="translate(-58.5 -18.500000000000014)" lucid:page-tab-id="0_0"><path d="M0 0h1870.87v2581.67H0z" fill="#fff"/><path d="M794.3 145.6c0 58.32-51.18 105.6-114.3 105.6s-114.3-47.28-114.3-105.6C565.7 87.28 616.9 40 680 40s114.3 47.28 114.3 105.6z" stroke="#5e5e5e" stroke-width="3" fill="#fff"/><use xlink:href="#a" transform="matrix(1,0,0,1,570.7142857142858,45.000000000000014) translate(67.33333333333336 107.74999999999997)"/><path d="M308.57 515.2c0 58.32-51.17 105.6-114.28 105.6-63.13 0-114.3-47.28-114.3-105.6 0-58.32 51.17-105.6 114.3-105.6 63.1 0 114.27 47.28 114.27 105.6z" stroke="#5e5e5e" stroke-width="3" fill="#fff"/><use xlink:href="#b" transform="matrix(1,0,0,1,85,414.6000000000001) translate(52.50500000000002 82.49999999999999)"/><use xlink:href="#c" transform="matrix(1,0,0,1,85,414.6000000000001) translate(76.17166666666668 130.49999999999997)"/><path d="M794.3 515.2c0 58.32-51.18 105.6-114.3 105.6s-114.3-47.28-114.3-105.6c0-58.32 51.18-105.6 114.3-105.6s114.3 47.28 114.3 105.6z" stroke="#5e5e5e" stroke-width="3" fill="#fff"/><use xlink:href="#d" transform="matrix(1,0,0,1,570.7142857142858,414.6000000000001) translate(64.6716666666667 82.49999999999997)"/><use xlink:href="#e" transform="matrix(1,0,0,1,570.7142857142858,414.6000000000001) translate(76.1716666666667 130.49999999999994)"/><path d="M1280 515.2c0 58.32-51.17 105.6-114.3 105.6-63.1 0-114.27-47.28-114.27-105.6 0-58.32 51.17-105.6 114.28-105.6 63.13 0 114.3 47.28 114.3 105.6z" stroke="#5e5e5e" stroke-width="3" fill="#fff"/><use xlink:href="#f" transform="matrix(1,0,0,1,1056.4285714285716,414.6000000000001) translate(22.22722222222226 82.49999999999999)"/><use xlink:href="#g" transform="matrix(1,0,0,1,1056.4285714285716,414.6000000000001) translate(76.17166666666668 130.49999999999997)"/><path d="M308.57 884.8c0 58.32-51.17 105.6-114.28 105.6-63.13 0-114.3-47.28-114.3-105.6 0-58.32 51.17-105.6 114.3-105.6 63.1 0 114.27 47.28 114.27 105.6z" stroke="#5e5e5e" stroke-width="3" fill="#fff"/><use xlink:href="#h" transform="matrix(1,0,0,1,85,784.1999999999999) translate(42.39388888888892 82.49999999999999)"/><use xlink:href="#i" transform="matrix(1,0,0,1,85,784.1999999999999) translate(76.17166666666668 130.49999999999997)"/><path d="M794.3 884.8c0 58.32-51.18 105.6-114.3 105.6s-114.3-47.28-114.3-105.6c0-58.32 51.18-105.6 114.3-105.6s114.3 47.28 114.3 105.6z" stroke="#5e5e5e" stroke-width="3" fill="#fff"/><use xlink:href="#j" transform="matrix(1,0,0,1,570.7142857142858,784.1999999999999) translate(35.7827777777778 82.49999999999999)"/><use xlink:href="#k" transform="matrix(1,0,0,1,570.7142857142858,784.1999999999999) translate(76.17166666666668 130.49999999999997)"/><path d="M1280 884.8c0 58.32-51.17 105.6-114.3 105.6-63.1 0-114.27-47.28-114.27-105.6 0-58.32 51.17-105.6 114.28-105.6 63.13 0 114.3 47.28 114.3 105.6z" stroke="#5e5e5e" stroke-width="3" fill="#fff"/><use xlink:href="#l" transform="matrix(1,0,0,1,1056.4285714285716,784.1999999999999) translate(37.00500000000003 82.49999999999999)"/><use xlink:href="#m" transform="matrix(1,0,0,1,1056.4285714285716,784.1999999999999) translate(76.17166666666668 130.49999999999997)"/><path d="M1280 1485.6c0 58.32-51.17 105.6-114.3 105.6-63.1 0-114.27-47.28-114.27-105.6 0-58.32 51.17-105.6 114.28-105.6 63.13 0 114.3 47.28 114.3 105.6z" stroke="#5e5e5e" stroke-width="3" fill="#fff"/><use xlink:href="#n" transform="matrix(1,0,0,1,1056.4285714285716,1385) translate(25.056951790123456 86.6791311111111)"/><use xlink:href="#o" transform="matrix(1,0,0,1,1056.4285714285716,1385) translate(78.39392592592593 131.47907777777777)"/><path d="M195.26 389.6h-1.95v-53.56h1.96zM309.4 146.57H200.3l-.82.07-.77.18-.72.3-.67.42-.6.5-.5.6-.42.68-.3.73-.17.76-.07.84v126.4h-1.95V151.56l.1-1.05.25-1.06.42-1 .57-.94.7-.83.84-.7.94-.6 1-.4 1.07-.26 1.05-.07h109.3zm253.8 0H379.85l.08-.97-.08-.97H563.2z" stroke="#5e5e5e" stroke-width=".05" fill="#5e5e5e"/><path d="M564.2 145.6l.03.97h-1.04v-1.94h1.03z" fill="#5e5e5e"/><path stroke="#5e5e5e" stroke-width=".05" fill="#5e5e5e"/><path d="M194.3 404.86l-4.65-14.26h9.27z" fill="#5e5e5e"/><path d="M194.3 408.02l-6-18.4h11.96zm-3.3-16.45l3.3 10.14 3.28-10.13z" stroke="#5e5e5e" stroke-width=".05" fill="#5e5e5e"/><path d="M148.95 307.04a28 28 0 0 1 28-28h34.67a28 28 0 0 1 28 28 28 28 0 0 1-28 28h-34.67a28 28 0 0 1-28-28zM310.47 145.6a28 28 0 0 1 28-28h12.45a28 28 0 0 1 28 28 28 28 0 0 1-28 28h-12.45a28 28 0 0 1-28-28z" stroke="#5e5e5e" stroke-width="2" fill-opacity="0"/><use xlink:href="#p" transform="matrix(1,0,0,1,160.95238095238096,283.04394332659774) translate(0 32)"/><use xlink:href="#q" transform="matrix(1,0,0,1,322.47126688404904,121.59999999999997) translate(0 32)"/><path d="M688.3 330.4v2.3h-1.94v-23.05h1.95z" stroke="#5e5e5e" stroke-width=".05" fill="#5e5e5e"/><path fill="#5e5e5e"/><path stroke="#5e5e5e" stroke-width=".05" fill="#5e5e5e"/><path d="M687.33 405.1l-4.63-14.27h9.26z" fill="#5e5e5e"/><path d="M687.33 408.26l-5.7-17.57h11.4zm-3.3-16.45l3.3 10.15 3.3-10.14z" stroke="#5e5e5e" stroke-width=".05" fill="#5e5e5e"/><path d="M642 361.7a28 28 0 0 1 28-28h34.66a28 28 0 0 1 28 28 28 28 0 0 1-28 28H670a28 28 0 0 1-28-28zM642 280.65a28 28 0 0 1 28-28h34.66a28 28 0 0 1 28 28 28 28 0 0 1-28 28H670a28 28 0 0 1-28-28z" stroke="#5e5e5e" stroke-width="2" fill-opacity="0"/><use xlink:href="#r" transform="matrix(1,0,0,1,653.9966726341725,337.685421667848) translate(0 32)"/><use xlink:href="#s" transform="matrix(1,0,0,1,653.9981089623832,256.6508323161011) translate(0 32)"/><path d="M1166.7 389.6h-1.96v-67.38h1.95zm-5.9-244.9l1.07.26 1 .42.95.58.83.7.7.84.58.93.42 1 .26 1.08.1 1.06v112.66h-1.96V151.64l-.07-.83-.18-.75-.3-.73-.42-.67-.5-.6-.6-.5-.7-.43-.7-.3-.78-.18-.82-.06H965.14l.08-.98-.08-.97h194.6zm-364 1.88v-1.96h78.04l-.15 1.95z" stroke="#5e5e5e" stroke-width=".05" fill="#5e5e5e"/><path d="M796.8 146.57h-1.03l.02-.97-.03-.97h1.04z" fill="#5e5e5e"/><path stroke="#5e5e5e" stroke-width=".05" fill="#5e5e5e"/><path d="M1165.7 404.86l-4.62-14.26h9.27z" fill="#5e5e5e"/><path d="M1165.7 408.02l-5.96-18.4h11.95zm-3.28-16.45l3.3 10.14 3.3-10.13z" stroke="#5e5e5e" stroke-width=".05" fill="#5e5e5e"/><path d="M1120.38 293.22a28 28 0 0 1 28-28h34.67a28 28 0 0 1 28 28 28 28 0 0 1-28 28h-34.67a28 28 0 0 1-28-28zM875.77 145.6a28 28 0 0 1 28-28h32.44a28 28 0 0 1 28 28 28 28 0 0 1-28 28h-32.43a28 28 0 0 1-28-28z" stroke="#5e5e5e" stroke-width="2" fill-opacity="0"/><use xlink:href="#t" transform="matrix(1,0,0,1,1132.3809523809525,269.2178613898008) translate(0 32)"/><use xlink:href="#u" transform="matrix(1,0,0,1,887.7695550402906,121.59999999999997) translate(0 32)"/><path d="M195.26 759.2h-1.95v-47.5h1.96zm224.4-111.03H200.3l-.82.07-.77.18-.72.3-.67.42-.6.5-.5.6-.42.68-.3.73-.17.76-.07.84v.47h-1.95v-.54l.1-1.05.25-1.06.42-1 .57-.94.7-.83.84-.72.94-.57 1-.42 1.07-.25 1.05-.07H419.8zm143.55-132H538.2l-.82.07-.77.18-.74.3-.67.42-.6.5-.52.6-.4.68-.3.73-.2.76-.06.84v120l-.1 1.05-.24 1.06-.42 1-.57.94-.72.83-.84.72-.93.57-1 .42-1.07.25-1.05.07h-13.86l.08-.97-.08-.98h13.78l.83-.06.77-.18.72-.3.68-.42.6-.5.5-.6.42-.68.3-.73.18-.76.07-.84v-120l.08-1.05.26-1.06.42-1 .58-.94.7-.83.84-.72.94-.57 1-.42 1.07-.25 1.06-.07h25.1z" stroke="#5e5e5e" stroke-width=".05" fill="#5e5e5e"/><path d="M564.2 515.2l.03.97h-1.04v-1.94h1.03z" fill="#5e5e5e"/><path stroke="#5e5e5e" stroke-width=".05" fill="#5e5e5e"/><path d="M194.3 774.46l-4.65-14.26h9.27z" fill="#5e5e5e"/><path d="M194.3 777.62l-6-18.4h11.96zm-3.3-16.45l3.3 10.14 3.28-10.13z" stroke="#5e5e5e" stroke-width=".05" fill="#5e5e5e"/><path d="M148.95 682.7a28 28 0 0 1 28-28h34.67a28 28 0 0 1 28 28 28 28 0 0 1-28 28h-34.67a28 28 0 0 1-28-28zM420.73 647.2a28 28 0 0 1 28-28h34.67a28 28 0 0 1 28 28 28 28 0 0 1-28 28h-34.67a28 28 0 0 1-28-28z" stroke="#5e5e5e" stroke-width="2" fill-opacity="0"/><use xlink:href="#v" transform="matrix(1,0,0,1,160.95238095238096,658.705763957822) translate(0 32)"/><use xlink:href="#w" transform="matrix(1,0,0,1,432.73110264134334,623.1999999999999) translate(0 32)"/><path d="M680.98 759.2H679v-6.83H681zm0-64.83H679V682H681zm0-70.37H679v-.7H681z" stroke="#5e5e5e" stroke-width=".05" fill="#5e5e5e"/><path d="M680 622.3l.98-.02v1.05H679v-1.05z" fill="#5e5e5e"/><path stroke="#5e5e5e" stroke-width=".05" fill="#5e5e5e"/><path d="M680 774.46l-4.63-14.26h9.26z" fill="#5e5e5e"/><path d="M680 777.62l-5.98-18.4h11.96zm-3.3-16.45l3.3 10.14 3.3-10.13z" stroke="#5e5e5e" stroke-width=".05" fill="#5e5e5e"/><path d="M634.67 723.37a28 28 0 0 1 28-28h34.66a28 28 0 0 1 28 28 28 28 0 0 1-28 28h-34.66a28 28 0 0 1-28-28zM645.78 653a28 28 0 0 1 28-28h12.44a28 28 0 0 1 28 28 28 28 0 0 1-28 28h-12.44a28 28 0 0 1-28-28z" stroke="#5e5e5e" stroke-width="2" fill-opacity="0"/><use xlink:href="#x" transform="matrix(1,0,0,1,646.6666666666666,699.370843335696) translate(0 32)"/><use xlink:href="#y" transform="matrix(1,0,0,1,657.7777777777778,629) translate(0 32)"/><path d="M1166.7 759.2h-1.96v-47.4h1.95zm-6.95-112.98l1.06.1 1.07.24 1 .42.95.57.83.72.7.83.58.93.42 1 .26 1.08.1 1.06v.64h-1.96v-.56l-.07-.83-.18-.75-.3-.73-.42-.67-.5-.6-.6-.5-.7-.42-.7-.3-.78-.2-.82-.06h-219.1l.07-.97-.07-.98zM824 514.57l1.02.42.94.57.83.72.7.83.58.93.4 1 .27 1.08.08 1.06v120l.07.83.18.75.3.73.4.67.53.6.6.5.68.42.72.3.77.2.82.06h36.38l-.15 1.94h-36.3l-1.06-.08-1.07-.26-1-.42-.94-.57-.84-.72-.7-.83-.58-.93-.42-1-.25-1.08-.1-1.06v-120l-.05-.83-.2-.75-.3-.73-.4-.67-.5-.6-.6-.5-.68-.42-.73-.3-.76-.2-.82-.06H796.8v-1.94h25.1l1.05.08z" stroke="#5e5e5e" stroke-width=".05" fill="#5e5e5e"/><path d="M796.8 516.17h-1.03l.02-.97-.03-.98h1.04z" fill="#5e5e5e"/><path stroke="#5e5e5e" stroke-width=".05" fill="#5e5e5e"/><path d="M1165.7 774.46l-4.62-14.26h9.27z" fill="#5e5e5e"/><path d="M1165.7 777.62l-5.96-18.4h11.95zm-3.28-16.45l3.3 10.14 3.3-10.13z" stroke="#5e5e5e" stroke-width=".05" fill="#5e5e5e"/><path d="M1120.38 682.8a28 28 0 0 1 28-28h34.67a28 28 0 0 1 28 28 28 28 0 0 1-28 28h-34.67a28 28 0 0 1-28-28zM871.2 647.2a28 28 0 0 1 28-28h12.45a28 28 0 0 1 28 28 28 28 0 0 1-28 28H899.2a28 28 0 0 1-28-28z" stroke="#5e5e5e" stroke-width="2" fill-opacity="0"/><use xlink:href="#z" transform="matrix(1,0,0,1,1132.3809523809525,658.8042451271568) translate(0 32)"/><use xlink:href="#A" transform="matrix(1,0,0,1,883.2050414160819,623.1999999999999) translate(0 32)"/><path d="M1022.86 1185.6c0 58.32-51.17 105.6-114.3 105.6-63.1 0-114.27-47.28-114.27-105.6 0-58.32 51.15-105.6 114.27-105.6s114.3 47.28 114.3 105.6z" stroke="#5e5e5e" stroke-width="3" fill="#fff"/><use xlink:href="#B" transform="matrix(1,0,0,1,799.2857142857142,1085) translate(54.67166666666668 82.49999999999999)"/><use xlink:href="#C" transform="matrix(1,0,0,1,799.2857142857142,1085) translate(76.17166666666668 130.49999999999997)"/><path d="M1528.57 1185.6c0 58.32-51.17 105.6-114.28 105.6-63.13 0-114.3-47.28-114.3-105.6 0-58.32 51.17-105.6 114.3-105.6 63.1 0 114.27 47.28 114.27 105.6z" stroke="#5e5e5e" stroke-width="3" fill="#fff"/><use xlink:href="#D" transform="matrix(1,0,0,1,1305,1085) translate(40.2827777777778 82.49999999999999)"/><use xlink:href="#E" transform="matrix(1,0,0,1,1305,1085) translate(76.17166666666668 130.49999999999997)"/><path d="M909.55 1060h-1.95v-20h1.95zm-1.14-146.2h1.15V982h-1.95v-68.26zm140.53-28.02H949.8l.1-.98-.08-.97h99.1z" stroke="#5e5e5e" stroke-width=".05" fill="#5e5e5e"/><path d="M1049.93 884.8l.02.98h-1.05v-1.95h1.05z" fill="#5e5e5e"/><path stroke="#5e5e5e" stroke-width=".05" fill="#5e5e5e"/><path d="M908.57 1075.26l-4.63-14.26h9.27z" fill="#5e5e5e"/><path d="M908.57 1078.42l-5.98-18.4h11.95zm-3.3-16.45l3.3 10.14 3.3-10.13z" stroke="#5e5e5e" stroke-width=".05" fill="#5e5e5e"/><path d="M880.44 884.8a28 28 0 0 1 28-28h12.45a28 28 0 0 1 28 28 28 28 0 0 1-28 28h-12.46a28 28 0 0 1-28-28zM874.35 1011a28 28 0 0 1 28-28h12.44a28 28 0 0 1 28 28 28 28 0 0 1-28 28h-12.45a28 28 0 0 1-28-28z" stroke="#5e5e5e" stroke-width="2" fill-opacity="0"/><use xlink:href="#F" transform="matrix(1,0,0,1,892.4444444444445,860.7999999999998) translate(0 32)"/><use xlink:href="#G" transform="matrix(1,0,0,1,886.3492063492063,987) translate(0 32)"/><path d="M1415.26 1060h-1.95v-27h1.96zm0-85h-1.95v-61.2h1.96zm-132.76-89.23v-1.94h81.24l-.15 1.94z" stroke="#5e5e5e" stroke-width=".05" fill="#5e5e5e"/><path d="M1282.53 885.77h-1.05l.02-.97-.02-.97h1.05z" fill="#5e5e5e"/><path stroke="#5e5e5e" stroke-width=".05" fill="#5e5e5e"/><path d="M1414.3 1075.26l-4.65-14.26h9.27z" fill="#5e5e5e"/><path d="M1414.3 1078.42l-6-18.4h11.96zm-3.3-16.45l3.3 10.14 3.28-10.13z" stroke="#5e5e5e" stroke-width=".05" fill="#5e5e5e"/><path d="M1368.95 1004a28 28 0 0 1 28-28h34.67a28 28 0 0 1 28 28 28 28 0 0 1-28 28h-34.67a28 28 0 0 1-28-28zM1364.67 884.8a28 28 0 0 1 28-28h34.66a28 28 0 0 1 28 28 28 28 0 0 1-28 28h-34.66a28 28 0 0 1-28-28z" stroke="#5e5e5e" stroke-width="2" fill-opacity="0"/><use xlink:href="#H" transform="matrix(1,0,0,1,1380.952380952381,980) translate(0 32)"/><use xlink:href="#I" transform="matrix(1,0,0,1,1376.6666666666667,860.7999999999872) translate(0 32)"/><path d="M1159.75 1334.6l1.06.07 1.07.26 1 .42.95.57.83.7.7.84.58.94.42 1 .26 1.07.1 1.06V1360h-1.96v-18.4l-.07-.82-.18-.77-.3-.7-.42-.7-.5-.58-.6-.52-.7-.4-.7-.3-.78-.2-.82-.06h-48.1l.02-1.95zm-96.38 1.94H959.6l.07-.97-.08-.98h103.77zm-156.96-29.97h-1.94v-12.94h1.95z" stroke="#5e5e5e" stroke-width=".05" fill="#5e5e5e"/><path d="M906.4 1292.65v1h-1.94v-1.04z" fill="#5e5e5e"/><path stroke="#5e5e5e" stroke-width=".05" fill="#5e5e5e"/><path d="M1165.7 1375.26l-4.62-14.26h9.27z" fill="#5e5e5e"/><path d="M1165.7 1378.42l-5.96-18.4h11.95zm-3.28-16.45l3.3 10.14 3.3-10.13z" stroke="#5e5e5e" stroke-width=".05" fill="#5e5e5e"/><path d="M868 1335.57a28 28 0 0 1 28-28h34.67a28 28 0 0 1 28 28 28 28 0 0 1-28 28H896a28 28 0 0 1-28-28zM1064.37 1330.68a23.1 23.1 0 0 1 23.1-23.1 23.1 23.1 0 0 1 23.13 23.1v9.77a23.1 23.1 0 0 1-23.12 23.12 23.1 23.1 0 0 1-23.1-23.12z" stroke="#5e5e5e" stroke-width="2" fill-opacity="0"/><use xlink:href="#J" transform="matrix(1,0,0,1,880,1311.5657804060183) translate(0 32)"/><use xlink:href="#K" transform="matrix(1,0,0,1,1076.3725728298007,1311.5657804060183) translate(0 32)"/><path d="M1320 91.6a6 6 0 0 1 6-6h48a6 6 0 0 1 6 6V134a6 6 0 0 1-6 6h-48a6 6 0 0 1-6-6z" stroke="#5e5e5e" stroke-width="3" fill="#e81313"/><path d="M1320 208.8a6 6 0 0 1 6-6h48a6 6 0 0 1 6 6v42.4a6 6 0 0 1-6 6h-48a6 6 0 0 1-6-6z" stroke="#5e5e5e" stroke-width="3" fill="#1071e5"/><path d="M1320 326a6 6 0 0 1 6-6h48a6 6 0 0 1 6 6v42.4a6 6 0 0 1-6 6h-48a6 6 0 0 1-6-6z" stroke="#5e5e5e" stroke-width="3" fill="#333"/><path d="M1440 91.6a6 6 0 0 1 6-6h302.6a6 6 0 0 1 6 6v94a6 6 0 0 1-6 6H1446a6 6 0 0 1-6-6z" fill="#fff" fill-opacity="0"/><g><use xlink:href="#L" transform="matrix(1,0,0,1,1445,90.59999999999997) translate(0 32)"/><use xlink:href="#M" transform="matrix(1,0,0,1,1445,90.59999999999997) translate(175.22222222222223 32)"/><use xlink:href="#N" transform="matrix(1,0,0,1,1445,90.59999999999997) translate(277.33333333333337 32)"/><use xlink:href="#O" transform="matrix(1,0,0,1,1445,90.59999999999997) translate(0 80.00007500011719)"/></g><path d="M1440 206a6 6 0 0 1 6-6h286.63a6 6 0 0 1 6 6v94a6 6 0 0 1-6 6H1446a6 6 0 0 1-6-6z" fill="#fff" fill-opacity="0"/><g><use xlink:href="#P" transform="matrix(1,0,0,1,1445,205) translate(0 32)"/><use xlink:href="#Q" transform="matrix(1,0,0,1,1445,205) translate(175.22222222222223 32)"/><use xlink:href="#R" transform="matrix(1,0,0,1,1445,205) translate(0 80.00007500011719)"/><use xlink:href="#S" transform="matrix(1,0,0,1,1445,205) translate(95.33333333333333 80.00007500011719)"/></g><path d="M1447.98 309.6a6 6 0 0 1 6-6h280.07a6 6 0 0 1 6 6v94a6 6 0 0 1-6 6h-280.07a6 6 0 0 1-6-6z" fill="#fff" fill-opacity="0"/><g><use xlink:href="#T" transform="matrix(1,0,0,1,1452.9802344444445,308.5999249998829) translate(0 32)"/><use xlink:href="#U" transform="matrix(1,0,0,1,1452.9802344444445,308.5999249998829) translate(115.44444444444446 32)"/><use xlink:href="#V" transform="matrix(1,0,0,1,1452.9802344444445,308.5999249998829) translate(191 32)"/><use xlink:href="#W" transform="matrix(1,0,0,1,1452.9802344444445,308.5999249998829) translate(0 80.00007500011719)"/></g><defs><path d="M205 0l-28-72H64L36 0H1l101-248h38L239 0h-34zm-38-99l-47-123c-12 45-31 82-46 123h93" id="X"/><path d="M114-163C36-179 61-72 57 0H25l-1-190h30c1 12-1 29 2 39 6-27 23-49 58-41v29" id="Y"/><path d="M141-36C126-15 110 5 73 4 37 3 15-17 15-53c-1-64 63-63 125-63 3-35-9-54-41-54-24 1-41 7-42 31l-33-3c5-37 33-52 76-52 45 0 72 20 72 64v82c-1 20 7 32 28 27v20c-31 9-61-2-59-35zM48-53c0 20 12 33 32 33 41-3 63-29 60-74-43 2-92-5-92 41" id="Z"/><path d="M85-194c31 0 48 13 60 33l-1-100h32l1 261h-30c-2-10 0-23-3-31C134-8 116 4 85 4 32 4 16-35 15-94c0-66 23-100 70-100zm9 24c-40 0-46 34-46 75 0 40 6 74 45 74 42 0 51-32 51-76 0-42-9-74-50-73" id="aa"/><g id="a"><use transform="matrix(0.11111111111111104,0,0,0.11111111111111104,0,0)" xlink:href="#X"/><use transform="matrix(0.11111111111111104,0,0,0.11111111111111104,26.66666666666665,0)" xlink:href="#Y"/><use transform="matrix(0.11111111111111104,0,0,0.11111111111111104,39.888888888888864,0)" xlink:href="#Z"/><use transform="matrix(0.11111111111111104,0,0,0.11111111111111104,62.11111111111107,0)" xlink:href="#aa"/></g><path d="M209 0H11v-25l151-195H24v-28h176v25L50-27h159V0" id="ab"/><path d="M100-194c63 0 86 42 84 106H49c0 40 14 67 53 68 26 1 43-12 49-29l28 8c-11 28-37 45-77 45C44 4 14-33 15-96c1-61 26-98 85-98zm52 81c6-60-76-77-97-28-3 7-6 17-6 28h103" id="ac"/><path d="M24-231v-30h32v30H24zM24 0v-190h32V0H24" id="ad"/><path d="M117-194c89-4 53 116 60 194h-32v-121c0-31-8-49-39-48C34-167 62-67 57 0H25l-1-190h30c1 10-1 24 2 32 11-22 29-35 61-36" id="ae"/><g id="b"><use transform="matrix(0.11111111111111108,0,0,0.11111111111111108,0,0)" xlink:href="#ab"/><use transform="matrix(0.11111111111111108,0,0,0.11111111111111108,24.333333333333325,0)" xlink:href="#ac"/><use transform="matrix(0.11111111111111108,0,0,0.11111111111111108,46.55555555555554,0)" xlink:href="#Y"/><use transform="matrix(0.11111111111111108,0,0,0.11111111111111108,59.77777777777776,0)" xlink:href="#ad"/><use transform="matrix(0.11111111111111108,0,0,0.11111111111111108,68.55555555555553,0)" xlink:href="#ae"/><use transform="matrix(0.11111111111111108,0,0,0.11111111111111108,90.77777777777774,0)" xlink:href="#aa"/></g><path d="M155-56V0h-30v-56H8v-25l114-167h33v167h35v25h-35zm-30-156c-27 46-58 90-88 131h88v-131" id="af"/><path d="M99-251c64 0 84 50 84 122C183-37 130 33 47-8c-14-7-20-23-25-40l30-5c6 39 69 39 84 7 9-19 16-44 16-74-10 22-31 35-62 35-49 0-73-33-73-83 0-54 28-83 82-83zm-1 141c31-1 51-18 51-49 0-36-14-67-51-67-34 0-49 23-49 58 0 34 15 58 49 58" id="ag"/><g id="c"><use transform="matrix(0.11111111111111108,0,0,0.11111111111111108,0,0)" xlink:href="#af"/><use transform="matrix(0.11111111111111108,0,0,0.11111111111111108,22.222222222222214,0)" xlink:href="#af"/><use transform="matrix(0.11111111111111108,0,0,0.11111111111111108,44.44444444444443,0)" xlink:href="#ag"/></g><path d="M185-189c-5-48-123-54-124 2 14 75 158 14 163 119 3 78-121 87-175 55-17-10-28-26-33-46l33-7c5 56 141 63 141-1 0-78-155-14-162-118-5-82 145-84 179-34 5 7 8 16 11 25" id="ah"/><path d="M115-194c53 0 69 39 70 98 0 66-23 100-70 100C84 3 66-7 56-30L54 0H23l1-261h32v101c10-23 28-34 59-34zm-8 174c40 0 45-34 45-75 0-40-5-75-45-74-42 0-51 32-51 76 0 43 10 73 51 73" id="ai"/><path d="M84 4C-5 8 30-112 23-190h32v120c0 31 7 50 39 49 72-2 45-101 50-169h31l1 190h-30c-1-10 1-25-2-33-11 22-28 36-60 37" id="aj"/><g id="d"><use transform="matrix(0.11111111111111104,0,0,0.11111111111111104,0,0)" xlink:href="#ah"/><use transform="matrix(0.11111111111111104,0,0,0.11111111111111104,26.66666666666665,0)" xlink:href="#ad"/><use transform="matrix(0.11111111111111104,0,0,0.11111111111111104,35.44444444444442,0)" xlink:href="#ai"/><use transform="matrix(0.11111111111111104,0,0,0.11111111111111104,57.66666666666663,0)" xlink:href="#ad"/><use transform="matrix(0.11111111111111104,0,0,0.11111111111111104,66.4444444444444,0)" xlink:href="#aj"/></g><path d="M126-127c33 6 58 20 58 59 0 88-139 92-164 29-3-8-5-16-6-25l32-3c6 27 21 44 54 44 32 0 52-15 52-46 0-38-36-46-79-43v-28c39 1 72-4 72-42 0-27-17-43-46-43-28 0-47 15-49 41l-32-3c6-42 35-63 81-64 48-1 79 21 79 65 0 36-21 52-52 59" id="ak"/><g id="e"><use transform="matrix(0.11111111111111104,0,0,0.11111111111111104,0,0)" xlink:href="#ak"/><use transform="matrix(0.11111111111111104,0,0,0.11111111111111104,22.222222222222207,0)" xlink:href="#ag"/><use transform="matrix(0.11111111111111104,0,0,0.11111111111111104,44.444444444444414,0)" xlink:href="#ak"/></g><path d="M127-220V0H93v-220H8v-28h204v28h-85" id="al"/><path d="M210-169c-67 3-38 105-44 169h-31v-121c0-29-5-50-35-48C34-165 62-65 56 0H25l-1-190h30c1 10-1 24 2 32 10-44 99-50 107 0 11-21 27-35 58-36 85-2 47 119 55 194h-31v-121c0-29-5-49-35-48" id="am"/><path d="M135-143c-3-34-86-38-87 0 15 53 115 12 119 90S17 21 10-45l28-5c4 36 97 45 98 0-10-56-113-15-118-90-4-57 82-63 122-42 12 7 21 19 24 35" id="an"/><path d="M100-194c62-1 85 37 85 99 1 63-27 99-86 99S16-35 15-95c0-66 28-99 85-99zM99-20c44 1 53-31 53-75 0-43-8-75-51-75s-53 32-53 75 10 74 51 75" id="ao"/><g id="f"><use transform="matrix(0.11111111111111108,0,0,0.11111111111111108,0,0)" xlink:href="#al"/><use transform="matrix(0.11111111111111108,0,0,0.11111111111111108,22.888888888888882,0)" xlink:href="#ad"/><use transform="matrix(0.11111111111111108,0,0,0.11111111111111108,31.666666666666657,0)" xlink:href="#am"/><use transform="matrix(0.11111111111111108,0,0,0.11111111111111108,64.88888888888887,0)" xlink:href="#ad"/><use transform="matrix(0.11111111111111108,0,0,0.11111111111111108,73.66666666666664,0)" xlink:href="#an"/><use transform="matrix(0.11111111111111108,0,0,0.11111111111111108,93.66666666666663,0)" xlink:href="#ao"/><use transform="matrix(0.11111111111111108,0,0,0.11111111111111108,115.88888888888886,0)" xlink:href="#Z"/><use transform="matrix(0.11111111111111108,0,0,0.11111111111111108,138.11111111111106,0)" xlink:href="#Y"/><use transform="matrix(0.11111111111111108,0,0,0.11111111111111108,151.3333333333333,0)" xlink:href="#Z"/></g><path d="M64 0c3-98 48-159 88-221H18v-27h164v26C143-157 98-101 97 0H64" id="ap"/><g id="g"><use transform="matrix(0.11111111111111108,0,0,0.11111111111111108,0,0)" xlink:href="#af"/><use transform="matrix(0.11111111111111108,0,0,0.11111111111111108,22.222222222222214,0)" xlink:href="#af"/><use transform="matrix(0.11111111111111108,0,0,0.11111111111111108,44.44444444444443,0)" xlink:href="#ap"/></g><path d="M140-251c81 0 123 46 123 126C263-46 219 4 140 4 59 4 17-45 17-125s42-126 123-126zm0 227c63 0 89-41 89-101s-29-99-89-99c-61 0-89 39-89 99S79-25 140-24" id="aq"/><g id="h"><use transform="matrix(0.11111111111111108,0,0,0.11111111111111108,0,0)" xlink:href="#aq"/><use transform="matrix(0.11111111111111108,0,0,0.11111111111111108,31.1111111111111,0)" xlink:href="#Y"/><use transform="matrix(0.11111111111111108,0,0,0.11111111111111108,44.333333333333314,0)" xlink:href="#Z"/><use transform="matrix(0.11111111111111108,0,0,0.11111111111111108,66.55555555555553,0)" xlink:href="#aa"/><use transform="matrix(0.11111111111111108,0,0,0.11111111111111108,88.77777777777774,0)" xlink:href="#ac"/><use transform="matrix(0.11111111111111108,0,0,0.11111111111111108,110.99999999999996,0)" xlink:href="#Z"/></g><path d="M54-142c48-35 137-8 131 61C196 18 31 33 14-55l32-4c7 23 22 37 52 37 35-1 51-22 54-58 4-55-73-65-99-34H22l8-134h141v27H59" id="ar"/><path d="M27 0v-27h64v-190l-56 39v-29l58-41h29v221h61V0H27" id="as"/><g id="i"><use transform="matrix(0.11111111111111108,0,0,0.11111111111111108,0,0)" xlink:href="#ar"/><use transform="matrix(0.11111111111111108,0,0,0.11111111111111108,22.222222222222214,0)" xlink:href="#ak"/><use transform="matrix(0.11111111111111108,0,0,0.11111111111111108,44.44444444444443,0)" xlink:href="#as"/></g><path d="M63-220v92h138v28H63V0H30v-248h175v28H63" id="at"/><path d="M177-190C167-65 218 103 67 71c-23-6-38-20-44-43l32-5c15 47 100 32 89-28v-30C133-14 115 1 83 1 29 1 15-40 15-95c0-56 16-97 71-98 29-1 48 16 59 35 1-10 0-23 2-32h30zM94-22c36 0 50-32 50-73 0-42-14-75-50-75-39 0-46 34-46 75s6 73 46 73" id="au"/><g id="j"><use transform="matrix(0.11111111111111108,0,0,0.11111111111111108,0,0)" xlink:href="#at"/><use transform="matrix(0.11111111111111108,0,0,0.11111111111111108,24.333333333333325,0)" xlink:href="#Z"/><use transform="matrix(0.11111111111111108,0,0,0.11111111111111108,46.55555555555554,0)" xlink:href="#au"/><use transform="matrix(0.11111111111111108,0,0,0.11111111111111108,68.77777777777776,0)" xlink:href="#Z"/><use transform="matrix(0.11111111111111108,0,0,0.11111111111111108,90.99999999999997,0)" xlink:href="#Y"/><use transform="matrix(0.11111111111111108,0,0,0.11111111111111108,104.22222222222219,0)" xlink:href="#Z"/><use transform="matrix(0.11111111111111108,0,0,0.11111111111111108,126.4444444444444,0)" xlink:href="#an"/></g><path d="M101-251c82-7 93 87 43 132L82-64C71-53 59-42 53-27h129V0H18c2-99 128-94 128-182 0-28-16-43-45-43s-46 15-49 41l-32-3c6-41 34-60 81-64" id="av"/><g id="k"><use transform="matrix(0.11111111111111108,0,0,0.11111111111111108,0,0)" xlink:href="#av"/><use transform="matrix(0.11111111111111108,0,0,0.11111111111111108,22.222222222222214,0)" xlink:href="#ap"/><use transform="matrix(0.11111111111111108,0,0,0.11111111111111108,44.44444444444443,0)" xlink:href="#ap"/></g><path d="M233-177c-1 41-23 64-60 70L243 0h-38l-65-103H63V0H30v-248c88 3 205-21 203 71zM63-129c60-2 137 13 137-47 0-61-80-42-137-45v92" id="aw"/><path d="M96-169c-40 0-48 33-48 73s9 75 48 75c24 0 41-14 43-38l32 2c-6 37-31 61-74 61-59 0-76-41-82-99-10-93 101-131 147-64 4 7 5 14 7 22l-32 3c-4-21-16-35-41-35" id="ax"/><g id="l"><use transform="matrix(0.11111111111111108,0,0,0.11111111111111108,0,0)" xlink:href="#aw"/><use transform="matrix(0.11111111111111108,0,0,0.11111111111111108,28.777777777777768,0)" xlink:href="#ad"/><use transform="matrix(0.11111111111111108,0,0,0.11111111111111108,37.55555555555554,0)" xlink:href="#am"/><use transform="matrix(0.11111111111111108,0,0,0.11111111111111108,70.77777777777776,0)" xlink:href="#ae"/><use transform="matrix(0.11111111111111108,0,0,0.11111111111111108,92.99999999999997,0)" xlink:href="#ad"/><use transform="matrix(0.11111111111111108,0,0,0.11111111111111108,101.77777777777774,0)" xlink:href="#ax"/><use transform="matrix(0.11111111111111108,0,0,0.11111111111111108,121.77777777777774,0)" xlink:href="#aj"/></g><g id="m"><use transform="matrix(0.11111111111111108,0,0,0.11111111111111108,0,0)" xlink:href="#av"/><use transform="matrix(0.11111111111111108,0,0,0.11111111111111108,22.222222222222214,0)" xlink:href="#ap"/><use transform="matrix(0.11111111111111108,0,0,0.11111111111111108,44.44444444444443,0)" xlink:href="#ak"/></g><path d="M160-131c35 5 61 23 61 61C221 17 115-2 30 0v-248c76 3 177-17 177 60 0 33-19 50-47 57zm-97-11c50-1 110 9 110-42 0-47-63-36-110-37v79zm0 115c55-2 124 14 124-45 0-56-70-42-124-44v89" id="ay"/><path d="M106-169C34-169 62-67 57 0H25v-261h32l-1 103c12-21 28-36 61-36 89 0 53 116 60 194h-32v-121c2-32-8-49-39-48" id="az"/><path d="M59-47c-2 24 18 29 38 22v24C64 9 27 4 27-40v-127H5v-23h24l9-43h21v43h35v23H59v120" id="aA"/><g id="n"><use transform="matrix(0.10370358024691358,0,0,0.10370358024691358,0,0)" xlink:href="#ay"/><use transform="matrix(0.10370358024691358,0,0,0.10370358024691358,24.88885925925926,0)" xlink:href="#aj"/><use transform="matrix(0.10370358024691358,0,0,0.10370358024691358,45.629575308641975,0)" xlink:href="#ax"/><use transform="matrix(0.10370358024691358,0,0,0.10370358024691358,64.29621975308642,0)" xlink:href="#az"/><use transform="matrix(0.10370358024691358,0,0,0.10370358024691358,85.03693580246913,0)" xlink:href="#Z"/><use transform="matrix(0.10370358024691358,0,0,0.10370358024691358,105.77765185185184,0)" xlink:href="#Y"/><use transform="matrix(0.10370358024691358,0,0,0.10370358024691358,118.11837790123457,0)" xlink:href="#ac"/><use transform="matrix(0.10370358024691358,0,0,0.10370358024691358,138.85909395061728,0)" xlink:href="#an"/><use transform="matrix(0.10370358024691358,0,0,0.10370358024691358,157.52573839506172,0)" xlink:href="#aA"/></g><path d="M101-251c68 0 85 55 85 127S166 4 100 4C33 4 14-52 14-124c0-73 17-127 87-127zm-1 229c47 0 54-49 54-102s-4-102-53-102c-51 0-55 48-55 102 0 53 5 102 54 102" id="aB"/><g id="o"><use transform="matrix(0.10370358024691358,0,0,0.10370358024691358,0,0)" xlink:href="#as"/><use transform="matrix(0.10370358024691358,0,0,0.10370358024691358,20.740716049382716,0)" xlink:href="#aB"/><use transform="matrix(0.10370358024691358,0,0,0.10370358024691358,41.48143209876543,0)" xlink:href="#as"/></g><path fill="#1071e5" d="M128-127c34 4 56 21 59 58 7 91-148 94-172 28-4-9-6-17-7-26l51-5c1 24 16 35 40 36 23 0 39-12 38-36-1-31-31-36-65-34v-40c32 2 59-3 59-33 0-20-13-33-34-33s-33 13-35 32l-50-3c6-44 37-68 86-68 50 0 83 20 83 66 0 35-22 52-53 58" id="aC"/><path fill="#1071e5" d="M52 0c1-96 47-148 87-207H15v-41h169v40c-36 62-79 113-81 208H52" id="aD"/><path fill="#1071e5" d="M165-50V0h-47v-50H5v-38l105-160h55v161h33v37h-33zm-47-37l2-116L46-87h72" id="aE"/><g id="p"><use transform="matrix(0.1111111111111111,0,0,0.1111111111111111,0,0)" xlink:href="#aC"/><use transform="matrix(0.1111111111111111,0,0,0.1111111111111111,22.22222222222222,0)" xlink:href="#aD"/><use transform="matrix(0.1111111111111111,0,0,0.1111111111111111,44.44444444444444,0)" xlink:href="#aE"/></g><path fill="#e81313" d="M52 0c1-96 47-148 87-207H15v-41h169v40c-36 62-79 113-81 208H52" id="aF"/><path fill="#e81313" d="M139-81c0-46-55-55-73-27H18l9-140h149v37H72l-4 63c44-38 133-4 122 66C201 21 21 35 11-62l49-4c5 18 15 30 39 30 26 0 40-18 40-45" id="aG"/><g id="q"><use transform="matrix(0.1111111111111111,0,0,0.1111111111111111,0,0)" xlink:href="#aF"/><use transform="matrix(0.1111111111111111,0,0,0.1111111111111111,22.22222222222222,0)" xlink:href="#aG"/></g><path fill="#1071e5" d="M182-182c0 78-84 86-111 141h115V0H12c-6-101 99-100 120-180 1-22-12-31-33-32-23 0-32 14-35 34l-49-3c5-45 32-70 84-70 51 0 83 22 83 69" id="aH"/><path fill="#1071e5" d="M139-81c0-46-55-55-73-27H18l9-140h149v37H72l-4 63c44-38 133-4 122 66C201 21 21 35 11-62l49-4c5 18 15 30 39 30 26 0 40-18 40-45" id="aI"/><g id="r"><use transform="matrix(0.1111111111111111,0,0,0.1111111111111111,0,0)" xlink:href="#aH"/><use transform="matrix(0.1111111111111111,0,0,0.1111111111111111,22.22222222222222,0)" xlink:href="#aI"/><use transform="matrix(0.1111111111111111,0,0,0.1111111111111111,44.44444444444444,0)" xlink:href="#aC"/></g><path fill="#e81313" d="M23 0v-37h61v-169l-59 37v-38l62-41h46v211h57V0H23" id="aJ"/><path fill="#e81313" d="M165-50V0h-47v-50H5v-38l105-160h55v161h33v37h-33zm-47-37l2-116L46-87h72" id="aK"/><path fill="#e81313" d="M101-251c68 0 84 54 84 127C185-50 166 4 99 4S15-52 14-124c-1-75 17-127 87-127zm-1 216c37-5 36-46 36-89s4-89-36-89c-39 0-36 45-36 89 0 43-3 85 36 89" id="aL"/><g id="s"><use transform="matrix(0.1111111111111111,0,0,0.1111111111111111,0,0)" xlink:href="#aJ"/><use transform="matrix(0.1111111111111111,0,0,0.1111111111111111,22.22222222222222,0)" xlink:href="#aK"/><use transform="matrix(0.1111111111111111,0,0,0.1111111111111111,44.44444444444444,0)" xlink:href="#aL"/></g><path fill="#1071e5" d="M99-251c69 0 84 53 88 123 5 99-61 162-144 118-15-8-21-25-26-45l46-6c4 31 50 33 63 7 7-15 12-36 12-60-9 18-29 28-54 28-48 0-72-32-72-82 0-55 31-83 87-83zm-1 128c24 0 37-16 37-39 0-27-10-51-37-51-25 0-35 19-35 45 0 25 10 45 35 45" id="aM"/><g id="t"><use transform="matrix(0.1111111111111111,0,0,0.1111111111111111,0,0)" xlink:href="#aC"/><use transform="matrix(0.1111111111111111,0,0,0.1111111111111111,22.22222222222222,0)" xlink:href="#aH"/><use transform="matrix(0.1111111111111111,0,0,0.1111111111111111,44.44444444444444,0)" xlink:href="#aM"/></g><path fill="#e81313" d="M138-131c27 9 52 24 51 61 0 53-36 74-89 74S11-19 11-69c0-35 22-54 51-61-78-25-46-121 38-121 51 0 83 19 83 66 0 30-18 49-45 54zm-38-16c24 0 32-13 32-36 1-23-11-34-32-34-22 0-33 12-32 34 0 22 9 36 32 36zm1 116c27 0 37-17 37-43 0-25-13-39-39-39-24 0-37 15-37 40 0 27 11 42 39 42" id="aN"/><g id="u"><use transform="matrix(0.1111111111111111,0,0,0.1111111111111111,0,0)" xlink:href="#aJ"/><use transform="matrix(0.1111111111111111,0,0,0.1111111111111111,20,0)" xlink:href="#aJ"/><use transform="matrix(0.1111111111111111,0,0,0.1111111111111111,42.22222222222222,0)" xlink:href="#aN"/></g><path fill="#1071e5" d="M138-131c27 9 52 24 51 61 0 53-36 74-89 74S11-19 11-69c0-35 22-54 51-61-78-25-46-121 38-121 51 0 83 19 83 66 0 30-18 49-45 54zm-38-16c24 0 32-13 32-36 1-23-11-34-32-34-22 0-33 12-32 34 0 22 9 36 32 36zm1 116c27 0 37-17 37-43 0-25-13-39-39-39-24 0-37 15-37 40 0 27 11 42 39 42" id="aO"/><path fill="#1071e5" d="M101-251c68 0 84 54 84 127C185-50 166 4 99 4S15-52 14-124c-1-75 17-127 87-127zm-1 216c37-5 36-46 36-89s4-89-36-89c-39 0-36 45-36 89 0 43-3 85 36 89" id="aP"/><g id="v"><use transform="matrix(0.1111111111111111,0,0,0.1111111111111111,0,0)" xlink:href="#aC"/><use transform="matrix(0.1111111111111111,0,0,0.1111111111111111,22.22222222222222,0)" xlink:href="#aO"/><use transform="matrix(0.1111111111111111,0,0,0.1111111111111111,44.44444444444444,0)" xlink:href="#aP"/></g><g id="w"><use transform="matrix(0.1111111111111111,0,0,0.1111111111111111,0,0)" xlink:href="#aJ"/><use transform="matrix(0.1111111111111111,0,0,0.1111111111111111,22.22222222222222,0)" xlink:href="#aG"/><use transform="matrix(0.1111111111111111,0,0,0.1111111111111111,44.44444444444444,0)" xlink:href="#aJ"/></g><path fill="#1071e5" d="M23 0v-37h61v-169l-59 37v-38l62-41h46v211h57V0H23" id="aQ"/><g id="x"><use transform="matrix(0.1111111111111111,0,0,0.1111111111111111,0,0)" xlink:href="#aQ"/><use transform="matrix(0.1111111111111111,0,0,0.1111111111111111,22.22222222222222,0)" xlink:href="#aD"/><use transform="matrix(0.1111111111111111,0,0,0.1111111111111111,44.44444444444444,0)" xlink:href="#aO"/></g><g id="y"><use transform="matrix(0.1111111111111111,0,0,0.1111111111111111,0,0)" xlink:href="#aN"/><use transform="matrix(0.1111111111111111,0,0,0.1111111111111111,22.22222222222222,0)" xlink:href="#aL"/></g><g id="z"><use transform="matrix(0.1111111111111111,0,0,0.1111111111111111,0,0)" xlink:href="#aQ"/><use transform="matrix(0.1111111111111111,0,0,0.1111111111111111,22.22222222222222,0)" xlink:href="#aM"/><use transform="matrix(0.1111111111111111,0,0,0.1111111111111111,44.44444444444444,0)" xlink:href="#aC"/></g><path fill="#e81313" d="M99-251c69 0 84 53 88 123 5 99-61 162-144 118-15-8-21-25-26-45l46-6c4 31 50 33 63 7 7-15 12-36 12-60-9 18-29 28-54 28-48 0-72-32-72-82 0-55 31-83 87-83zm-1 128c24 0 37-16 37-39 0-27-10-51-37-51-25 0-35 19-35 45 0 25 10 45 35 45" id="aR"/><g id="A"><use transform="matrix(0.1111111111111111,0,0,0.1111111111111111,0,0)" xlink:href="#aR"/><use transform="matrix(0.1111111111111111,0,0,0.1111111111111111,22.22222222222222,0)" xlink:href="#aR"/></g><path d="M30-248c87 1 191-15 191 75 0 78-77 80-158 76V0H30v-248zm33 125c57 0 124 11 124-50 0-59-68-47-124-48v98" id="aS"/><g id="B"><use transform="matrix(0.11111111111111108,0,0,0.11111111111111108,0,0)" xlink:href="#aS"/><use transform="matrix(0.11111111111111108,0,0,0.11111111111111108,26.666666666666657,0)" xlink:href="#ad"/><use transform="matrix(0.11111111111111108,0,0,0.11111111111111108,35.44444444444443,0)" xlink:href="#aA"/><use transform="matrix(0.11111111111111108,0,0,0.11111111111111108,46.555555555555536,0)" xlink:href="#ac"/><use transform="matrix(0.11111111111111108,0,0,0.11111111111111108,68.77777777777774,0)" xlink:href="#an"/><use transform="matrix(0.11111111111111108,0,0,0.11111111111111108,88.77777777777774,0)" xlink:href="#aA"/><use transform="matrix(0.11111111111111108,0,0,0.11111111111111108,99.88888888888886,0)" xlink:href="#ad"/></g><g id="C"><use transform="matrix(0.11111111111111108,0,0,0.11111111111111108,0,0)" xlink:href="#as"/><use transform="matrix(0.11111111111111108,0,0,0.11111111111111108,22.222222222222214,0)" xlink:href="#ag"/><use transform="matrix(0.11111111111111108,0,0,0.11111111111111108,44.44444444444443,0)" xlink:href="#ar"/></g><path d="M212-179c-10-28-35-45-73-45-59 0-87 40-87 99 0 60 29 101 89 101 43 0 62-24 78-52l27 14C228-24 195 4 139 4 59 4 22-46 18-125c-6-104 99-153 187-111 19 9 31 26 39 46" id="aT"/><path d="M108 0H70L1-190h34L89-25l56-165h34" id="aU"/><g id="D"><use transform="matrix(0.11111111111111108,0,0,0.11111111111111108,0,0)" xlink:href="#aT"/><use transform="matrix(0.11111111111111108,0,0,0.11111111111111108,28.777777777777768,0)" xlink:href="#Y"/><use transform="matrix(0.11111111111111108,0,0,0.11111111111111108,41.999999999999986,0)" xlink:href="#Z"/><use transform="matrix(0.11111111111111108,0,0,0.11111111111111108,64.2222222222222,0)" xlink:href="#ad"/><use transform="matrix(0.11111111111111108,0,0,0.11111111111111108,72.99999999999997,0)" xlink:href="#ao"/><use transform="matrix(0.11111111111111108,0,0,0.11111111111111108,95.22222222222219,0)" xlink:href="#aU"/><use transform="matrix(0.11111111111111108,0,0,0.11111111111111108,115.22222222222216,0)" xlink:href="#Z"/></g><path d="M110-160c48 1 74 30 74 79 0 53-28 85-80 85-65 0-83-55-86-122-5-90 50-162 133-122 14 7 22 21 27 39l-31 6c-5-40-67-38-82-6-9 19-15 44-15 74 11-20 30-34 60-33zm-7 138c34 0 49-23 49-58s-16-56-50-56c-29 0-50 16-49 49 1 36 15 65 50 65" id="aV"/><g id="E"><use transform="matrix(0.11111111111111108,0,0,0.11111111111111108,0,0)" xlink:href="#ak"/><use transform="matrix(0.11111111111111108,0,0,0.11111111111111108,22.222222222222214,0)" xlink:href="#aB"/><use transform="matrix(0.11111111111111108,0,0,0.11111111111111108,44.44444444444443,0)" xlink:href="#aV"/></g><g id="F"><use transform="matrix(0.1111111111111111,0,0,0.1111111111111111,0,0)" xlink:href="#aR"/><use transform="matrix(0.1111111111111111,0,0,0.1111111111111111,22.22222222222222,0)" xlink:href="#aF"/></g><g id="G"><use transform="matrix(0.1111111111111111,0,0,0.1111111111111111,0,0)" xlink:href="#aM"/><use transform="matrix(0.1111111111111111,0,0,0.1111111111111111,22.22222222222222,0)" xlink:href="#aO"/></g><path fill="#1071e5" d="M115-159c48 0 72 30 72 78 0 54-30 85-83 85-64 0-91-50-91-122 0-98 58-163 141-120 15 8 21 24 27 44l-47 6c-5-31-48-31-61-4-7 14-11 33-11 60 9-17 28-27 53-27zM102-35c24 0 36-20 36-45s-11-43-37-43c-23 0-36 14-36 38 0 27 11 50 37 50" id="aW"/><g id="H"><use transform="matrix(0.1111111111111111,0,0,0.1111111111111111,0,0)" xlink:href="#aQ"/><use transform="matrix(0.1111111111111111,0,0,0.1111111111111111,22.22222222222222,0)" xlink:href="#aW"/><use transform="matrix(0.1111111111111111,0,0,0.1111111111111111,44.44444444444444,0)" xlink:href="#aP"/></g><path fill="#e81313" d="M115-159c48 0 72 30 72 78 0 54-30 85-83 85-64 0-91-50-91-122 0-98 58-163 141-120 15 8 21 24 27 44l-47 6c-5-31-48-31-61-4-7 14-11 33-11 60 9-17 28-27 53-27zM102-35c24 0 36-20 36-45s-11-43-37-43c-23 0-36 14-36 38 0 27 11 50 37 50" id="aX"/><g id="I"><use transform="matrix(0.1111111111111111,0,0,0.1111111111111111,0,0)" xlink:href="#aJ"/><use transform="matrix(0.1111111111111111,0,0,0.1111111111111111,22.22222222222222,0)" xlink:href="#aK"/><use transform="matrix(0.1111111111111111,0,0,0.1111111111111111,44.44444444444444,0)" xlink:href="#aX"/></g><g id="J"><use transform="matrix(0.1111111111111111,0,0,0.1111111111111111,0,0)" xlink:href="#aJ"/><use transform="matrix(0.1111111111111111,0,0,0.1111111111111111,22.22222222222222,0)" xlink:href="#aL"/><use transform="matrix(0.1111111111111111,0,0,0.1111111111111111,44.44444444444444,0)" xlink:href="#aJ"/></g><use transform="matrix(0.1111111111111111,0,0,0.1111111111111111,0,0)" xlink:href="#aP" id="K"/><path fill="#e81313" d="M30-248c118-7 216 8 213 122C240-48 200 0 122 0H30v-248zM63-27c89 8 146-16 146-99s-60-101-146-95v194" id="aY"/><path fill="#e81313" d="M24-231v-30h32v30H24zM24 0v-190h32V0H24" id="aZ"/><path fill="#e81313" d="M135-143c-3-34-86-38-87 0 15 53 115 12 119 90S17 21 10-45l28-5c4 36 97 45 98 0-10-56-113-15-118-90-4-57 82-63 122-42 12 7 21 19 24 35" id="ba"/><path fill="#e81313" d="M59-47c-2 24 18 29 38 22v24C64 9 27 4 27-40v-127H5v-23h24l9-43h21v43h35v23H59v120" id="bb"/><path fill="#e81313" d="M141-36C126-15 110 5 73 4 37 3 15-17 15-53c-1-64 63-63 125-63 3-35-9-54-41-54-24 1-41 7-42 31l-33-3c5-37 33-52 76-52 45 0 72 20 72 64v82c-1 20 7 32 28 27v20c-31 9-61-2-59-35zM48-53c0 20 12 33 32 33 41-3 63-29 60-74-43 2-92-5-92 41zm67-209c12 18 30 30 39 51-31 2-38-20-57-30-20 10-27 32-59 30 9-22 29-33 41-51h36" id="bc"/><path fill="#e81313" d="M117-194c89-4 53 116 60 194h-32v-121c0-31-8-49-39-48C34-167 62-67 57 0H25l-1-190h30c1 10-1 24 2 32 11-22 29-35 61-36" id="bd"/><path fill="#e81313" d="M96-169c-40 0-48 33-48 73s9 75 48 75c24 0 41-14 43-38l32 2c-6 37-31 61-74 61-59 0-76-41-82-99-10-93 101-131 147-64 4 7 5 14 7 22l-32 3c-4-21-16-35-41-35" id="be"/><path fill="#e81313" d="M141-36C126-15 110 5 73 4 37 3 15-17 15-53c-1-64 63-63 125-63 3-35-9-54-41-54-24 1-41 7-42 31l-33-3c5-37 33-52 76-52 45 0 72 20 72 64v82c-1 20 7 32 28 27v20c-31 9-61-2-59-35zM48-53c0 20 12 33 32 33 41-3 63-29 60-74-43 2-92-5-92 41" id="bf"/><g id="L"><use transform="matrix(0.1111111111111111,0,0,0.1111111111111111,0,0)" xlink:href="#aY"/><use transform="matrix(0.1111111111111111,0,0,0.1111111111111111,28.777777777777775,0)" xlink:href="#aZ"/><use transform="matrix(0.1111111111111111,0,0,0.1111111111111111,37.55555555555555,0)" xlink:href="#ba"/><use transform="matrix(0.1111111111111111,0,0,0.1111111111111111,57.55555555555555,0)" xlink:href="#bb"/><use transform="matrix(0.1111111111111111,0,0,0.1111111111111111,68.66666666666666,0)" xlink:href="#bc"/><use transform="matrix(0.1111111111111111,0,0,0.1111111111111111,90.88888888888889,0)" xlink:href="#bd"/><use transform="matrix(0.1111111111111111,0,0,0.1111111111111111,113.11111111111111,0)" xlink:href="#be"/><use transform="matrix(0.1111111111111111,0,0,0.1111111111111111,133.11111111111111,0)" xlink:href="#aZ"/><use transform="matrix(0.1111111111111111,0,0,0.1111111111111111,141.88888888888889,0)" xlink:href="#bf"/></g><path fill="#e81313" d="M100-194c63 0 86 42 84 106H49c0 40 14 67 53 68 26 1 43-12 49-29l28 8c-11 28-37 45-77 45C44 4 14-33 15-96c1-61 26-98 85-98zm52 81c6-60-76-77-97-28-3 7-6 17-6 28h103" id="bg"/><path fill="#e81313" d="M114-163C36-179 61-72 57 0H25l-1-190h30c1 12-1 29 2 39 6-27 23-49 58-41v29" id="bh"/><g id="M"><use transform="matrix(0.1111111111111111,0,0,0.1111111111111111,0,0)" xlink:href="#bg"/><use transform="matrix(0.1111111111111111,0,0,0.1111111111111111,22.22222222222222,0)" xlink:href="#bd"/><use transform="matrix(0.1111111111111111,0,0,0.1111111111111111,44.44444444444444,0)" xlink:href="#bb"/><use transform="matrix(0.1111111111111111,0,0,0.1111111111111111,55.55555555555556,0)" xlink:href="#bh"/><use transform="matrix(0.1111111111111111,0,0,0.1111111111111111,68.77777777777777,0)" xlink:href="#bg"/></g><use transform="matrix(0.1111111111111111,0,0,0.1111111111111111,0,0)" xlink:href="#bf" id="N"/><path fill="#e81313" d="M85-194c31 0 48 13 60 33l-1-100h32l1 261h-30c-2-10 0-23-3-31C134-8 116 4 85 4 32 4 16-35 15-94c0-66 23-100 70-100zm9 24c-40 0-46 34-46 75 0 40 6 74 45 74 42 0 51-32 51-76 0-42-9-74-50-73" id="bi"/><g id="O"><use transform="matrix(0.1111111111111111,0,0,0.1111111111111111,0,0)" xlink:href="#be"/><use transform="matrix(0.1111111111111111,0,0,0.1111111111111111,20,0)" xlink:href="#aZ"/><use transform="matrix(0.1111111111111111,0,0,0.1111111111111111,28.777777777777775,0)" xlink:href="#bi"/><use transform="matrix(0.1111111111111111,0,0,0.1111111111111111,51,0)" xlink:href="#bf"/><use transform="matrix(0.1111111111111111,0,0,0.1111111111111111,73.22222222222223,0)" xlink:href="#bi"/><use transform="matrix(0.1111111111111111,0,0,0.1111111111111111,95.44444444444446,0)" xlink:href="#bg"/></g><path fill="#1071e5" d="M30-248c118-7 216 8 213 122C240-48 200 0 122 0H30v-248zM63-27c89 8 146-16 146-99s-60-101-146-95v194" id="bj"/><path fill="#1071e5" d="M24-231v-30h32v30H24zM24 0v-190h32V0H24" id="bk"/><path fill="#1071e5" d="M135-143c-3-34-86-38-87 0 15 53 115 12 119 90S17 21 10-45l28-5c4 36 97 45 98 0-10-56-113-15-118-90-4-57 82-63 122-42 12 7 21 19 24 35" id="bl"/><path fill="#1071e5" d="M59-47c-2 24 18 29 38 22v24C64 9 27 4 27-40v-127H5v-23h24l9-43h21v43h35v23H59v120" id="bm"/><path fill="#1071e5" d="M141-36C126-15 110 5 73 4 37 3 15-17 15-53c-1-64 63-63 125-63 3-35-9-54-41-54-24 1-41 7-42 31l-33-3c5-37 33-52 76-52 45 0 72 20 72 64v82c-1 20 7 32 28 27v20c-31 9-61-2-59-35zM48-53c0 20 12 33 32 33 41-3 63-29 60-74-43 2-92-5-92 41zm67-209c12 18 30 30 39 51-31 2-38-20-57-30-20 10-27 32-59 30 9-22 29-33 41-51h36" id="bn"/><path fill="#1071e5" d="M117-194c89-4 53 116 60 194h-32v-121c0-31-8-49-39-48C34-167 62-67 57 0H25l-1-190h30c1 10-1 24 2 32 11-22 29-35 61-36" id="bo"/><path fill="#1071e5" d="M96-169c-40 0-48 33-48 73s9 75 48 75c24 0 41-14 43-38l32 2c-6 37-31 61-74 61-59 0-76-41-82-99-10-93 101-131 147-64 4 7 5 14 7 22l-32 3c-4-21-16-35-41-35" id="bp"/><path fill="#1071e5" d="M141-36C126-15 110 5 73 4 37 3 15-17 15-53c-1-64 63-63 125-63 3-35-9-54-41-54-24 1-41 7-42 31l-33-3c5-37 33-52 76-52 45 0 72 20 72 64v82c-1 20 7 32 28 27v20c-31 9-61-2-59-35zM48-53c0 20 12 33 32 33 41-3 63-29 60-74-43 2-92-5-92 41" id="bq"/><g id="P"><use transform="matrix(0.1111111111111111,0,0,0.1111111111111111,0,0)" xlink:href="#bj"/><use transform="matrix(0.1111111111111111,0,0,0.1111111111111111,28.777777777777775,0)" xlink:href="#bk"/><use transform="matrix(0.1111111111111111,0,0,0.1111111111111111,37.55555555555555,0)" xlink:href="#bl"/><use transform="matrix(0.1111111111111111,0,0,0.1111111111111111,57.55555555555555,0)" xlink:href="#bm"/><use transform="matrix(0.1111111111111111,0,0,0.1111111111111111,68.66666666666666,0)" xlink:href="#bn"/><use transform="matrix(0.1111111111111111,0,0,0.1111111111111111,90.88888888888889,0)" xlink:href="#bo"/><use transform="matrix(0.1111111111111111,0,0,0.1111111111111111,113.11111111111111,0)" xlink:href="#bp"/><use transform="matrix(0.1111111111111111,0,0,0.1111111111111111,133.11111111111111,0)" xlink:href="#bk"/><use transform="matrix(0.1111111111111111,0,0,0.1111111111111111,141.88888888888889,0)" xlink:href="#bq"/></g><path fill="#1071e5" d="M100-194c63 0 86 42 84 106H49c0 40 14 67 53 68 26 1 43-12 49-29l28 8c-11 28-37 45-77 45C44 4 14-33 15-96c1-61 26-98 85-98zm52 81c6-60-76-77-97-28-3 7-6 17-6 28h103" id="br"/><path fill="#1071e5" d="M210-169c-67 3-38 105-44 169h-31v-121c0-29-5-50-35-48C34-165 62-65 56 0H25l-1-190h30c1 10-1 24 2 32 10-44 99-50 107 0 11-21 27-35 58-36 85-2 47 119 55 194h-31v-121c0-29-5-49-35-48" id="bs"/><g id="Q"><use transform="matrix(0.1111111111111111,0,0,0.1111111111111111,0,0)" xlink:href="#br"/><use transform="matrix(0.1111111111111111,0,0,0.1111111111111111,22.22222222222222,0)" xlink:href="#bs"/></g><path fill="#1071e5" d="M24 0v-261h32V0H24" id="bt"/><path fill="#1071e5" d="M106-169C34-169 62-67 57 0H25v-261h32l-1 103c12-21 28-36 61-36 89 0 53 116 60 194h-32v-121c2-32-8-49-39-48" id="bu"/><g id="R"><use transform="matrix(0.1111111111111111,0,0,0.1111111111111111,0,0)" xlink:href="#bt"/><use transform="matrix(0.1111111111111111,0,0,0.1111111111111111,8.777777777777777,0)" xlink:href="#bk"/><use transform="matrix(0.1111111111111111,0,0,0.1111111111111111,17.555555555555554,0)" xlink:href="#bo"/><use transform="matrix(0.1111111111111111,0,0,0.1111111111111111,39.77777777777777,0)" xlink:href="#bu"/><use transform="matrix(0.1111111111111111,0,0,0.1111111111111111,62,0)" xlink:href="#bq"/></g><path fill="#1071e5" d="M114-163C36-179 61-72 57 0H25l-1-190h30c1 12-1 29 2 39 6-27 23-49 58-41v29" id="bv"/><g id="S"><use transform="matrix(0.1111111111111111,0,0,0.1111111111111111,0,0)" xlink:href="#bv"/><use transform="matrix(0.1111111111111111,0,0,0.1111111111111111,13.222222222222221,0)" xlink:href="#br"/><use transform="matrix(0.1111111111111111,0,0,0.1111111111111111,35.44444444444444,0)" xlink:href="#bm"/><use transform="matrix(0.1111111111111111,0,0,0.1111111111111111,46.55555555555556,0)" xlink:href="#bq"/></g><g id="T"><use transform="matrix(0.1111111111111111,0,0,0.1111111111111111,0,0)" xlink:href="#ah"/><use transform="matrix(0.1111111111111111,0,0,0.1111111111111111,26.666666666666664,0)" xlink:href="#ao"/><use transform="matrix(0.1111111111111111,0,0,0.1111111111111111,48.888888888888886,0)" xlink:href="#am"/><use transform="matrix(0.1111111111111111,0,0,0.1111111111111111,82.11111111111111,0)" xlink:href="#Z"/></g><g id="U"><use transform="matrix(0.1111111111111111,0,0,0.1111111111111111,0,0)" xlink:href="#aa"/><use transform="matrix(0.1111111111111111,0,0,0.1111111111111111,22.22222222222222,0)" xlink:href="#ao"/><use transform="matrix(0.1111111111111111,0,0,0.1111111111111111,44.44444444444444,0)" xlink:href="#an"/></g><g id="V"><use transform="matrix(0.1111111111111111,0,0,0.1111111111111111,0,0)" xlink:href="#aa"/><use transform="matrix(0.1111111111111111,0,0,0.1111111111111111,22.22222222222222,0)" xlink:href="#ao"/><use transform="matrix(0.1111111111111111,0,0,0.1111111111111111,44.44444444444444,0)" xlink:href="#ad"/><use transform="matrix(0.1111111111111111,0,0,0.1111111111111111,53.22222222222222,0)" xlink:href="#an"/></g><path d="M24 0v-261h32V0H24" id="bw"/><g id="W"><use transform="matrix(0.1111111111111111,0,0,0.1111111111111111,0,0)" xlink:href="#aU"/><use transform="matrix(0.1111111111111111,0,0,0.1111111111111111,20,0)" xlink:href="#Z"/><use transform="matrix(0.1111111111111111,0,0,0.1111111111111111,42.22222222222222,0)" xlink:href="#bw"/><use transform="matrix(0.1111111111111111,0,0,0.1111111111111111,51,0)" xlink:href="#ao"/><use transform="matrix(0.1111111111111111,0,0,0.1111111111111111,73.22222222222223,0)" xlink:href="#Y"/><use transform="matrix(0.1111111111111111,0,0,0.1111111111111111,86.44444444444446,0)" xlink:href="#ac"/><use transform="matrix(0.1111111111111111,0,0,0.1111111111111111,108.66666666666669,0)" xlink:href="#an"/></g></defs></g></svg>