<svg xmlns="http://www.w3.org/2000/svg" xmlns:xlink="http://www.w3.org/1999/xlink" xmlns:lucid="lucid" width="1491.57" height="1594.2"><g transform="translate(-58.5 -18.500000000000014)" lucid:page-tab-id="0_0"><path d="M0 0h1870.87v2581.67H0z" fill="#fff"/><path d="M794.3 145.6c0 58.32-51.18 105.6-114.3 105.6s-114.3-47.28-114.3-105.6C565.7 87.28 616.9 40 680 40s114.3 47.28 114.3 105.6z" stroke="#5e5e5e" stroke-width="3" fill="#fff"/><use xlink:href="#a" transform="matrix(1,0,0,1,570.7142857142858,45.000000000000014) translate(67.33333333333336 107.74999999999997)"/><path d="M308.57 515.2c0 58.32-51.17 105.6-114.28 105.6-63.13 0-114.3-47.28-114.3-105.6 0-58.32 51.17-105.6 114.3-105.6 63.1 0 114.27 47.28 114.27 105.6z" stroke="#5e5e5e" stroke-width="3" fill="#fff"/><use xlink:href="#b" transform="matrix(1,0,0,1,85,414.6000000000001) translate(53.00000000000002 107.74999999999999)"/><path d="M794.3 515.2c0 58.32-51.18 105.6-114.3 105.6s-114.3-47.28-114.3-105.6c0-58.32 51.18-105.6 114.3-105.6s114.3 47.28 114.3 105.6z" stroke="#5e5e5e" stroke-width="3" fill="#fff"/><use xlink:href="#c" transform="matrix(1,0,0,1,570.7142857142858,414.6000000000001) translate(65.1666666666667 107.74999999999997)"/><path d="M1280 515.2c0 58.32-51.17 105.6-114.3 105.6-63.1 0-114.27-47.28-114.27-105.6 0-58.32 51.17-105.6 114.28-105.6 63.13 0 114.3 47.28 114.3 105.6z" stroke="#5e5e5e" stroke-width="3" fill="#fff"/><use xlink:href="#d" transform="matrix(1,0,0,1,1056.4285714285716,414.6000000000001) translate(22.722222222222257 107.74999999999999)"/><path d="M308.57 884.8c0 58.32-51.17 105.6-114.28 105.6-63.13 0-114.3-47.28-114.3-105.6 0-58.32 51.17-105.6 114.3-105.6 63.1 0 114.27 47.28 114.27 105.6z" stroke="#5e5e5e" stroke-width="3" fill="#fff"/><use xlink:href="#e" transform="matrix(1,0,0,1,85,784.1999999999999) translate(42.888888888888914 107.74999999999999)"/><path d="M794.3 884.8c0 58.32-51.18 105.6-114.3 105.6s-114.3-47.28-114.3-105.6c0-58.32 51.18-105.6 114.3-105.6s114.3 47.28 114.3 105.6z" stroke="#5e5e5e" stroke-width="3" fill="#fff"/><use xlink:href="#f" transform="matrix(1,0,0,1,570.7142857142858,784.1999999999999) translate(36.2777777777778 107.74999999999999)"/><path d="M1280 884.8c0 58.32-51.17 105.6-114.3 105.6-63.1 0-114.27-47.28-114.27-105.6 0-58.32 51.17-105.6 114.28-105.6 63.13 0 114.3 47.28 114.3 105.6z" stroke="#5e5e5e" stroke-width="3" fill="#fff"/><use xlink:href="#g" transform="matrix(1,0,0,1,1056.4285714285716,784.1999999999999) translate(37.50000000000003 107.74999999999999)"/><path d="M1280 1485.6c0 58.32-51.17 105.6-114.3 105.6-63.1 0-114.27-47.28-114.27-105.6 0-58.32 51.17-105.6 114.28-105.6 63.13 0 114.3 47.28 114.3 105.6z" stroke="#5e5e5e" stroke-width="3" fill="#fff"/><use xlink:href="#h" transform="matrix(1,0,0,1,1056.4285714285716,1385) translate(25.551951790123454 105.6166311111111)"/><path d="M195.26 389.6h-1.95v-53.56h1.96zM563.2 146.57H200.33l-.82.07-.77.18-.72.3-.67.42-.6.5-.5.6-.42.68-.3.73-.17.76-.07.84v126.4h-1.95V151.56l.1-1.05.25-1.06.42-1 .57-.94.7-.83.84-.7.94-.6 1-.4 1.07-.26 1.05-.07H563.2z" stroke="#5e5e5e" stroke-width=".05" fill="#5e5e5e"/><path d="M564.2 145.6l.03.97h-1.04v-1.94h1.03z" fill="#5e5e5e"/><path stroke="#5e5e5e" stroke-width=".05" fill="#5e5e5e"/><path d="M194.3 404.86l-4.65-14.26h9.27z" fill="#5e5e5e"/><path d="M194.3 408.02l-6-18.4h11.96zm-3.3-16.45l3.3 10.14 3.28-10.13z" stroke="#5e5e5e" stroke-width=".05" fill="#5e5e5e"/><path d="M148.95 307.04a28 28 0 0 1 28-28h34.67a28 28 0 0 1 28 28 28 28 0 0 1-28 28h-34.67a28 28 0 0 1-28-28z" stroke="#5e5e5e" stroke-width="2" fill-opacity="0"/><use xlink:href="#i" transform="matrix(1,0,0,1,160.95238095238096,283.04394332659774) translate(0 31.99999999999999)"/><path d="M688.3 389.83h-1.94v-49.1h1.95zm0-107.1h-1.94v-29.27h1.95z" stroke="#5e5e5e" stroke-width=".05" fill="#5e5e5e"/><path d="M688.3 253.5h-1.94v-.98l1.95-.12z" fill="#5e5e5e"/><path stroke="#5e5e5e" stroke-width=".05" fill="#5e5e5e"/><path d="M687.33 405.1l-4.63-14.27h9.26z" fill="#5e5e5e"/><path d="M687.33 408.26l-5.98-18.4h11.96zm-3.3-16.45l3.3 10.15 3.3-10.14z" stroke="#5e5e5e" stroke-width=".05" fill="#5e5e5e"/><path d="M642 311.73a28 28 0 0 1 28-28h34.66a28 28 0 0 1 28 28 28 28 0 0 1-28 28H670a28 28 0 0 1-28-28z" stroke="#5e5e5e" stroke-width="2" fill-opacity="0"/><use xlink:href="#j" transform="matrix(1,0,0,1,653.9981089623832,287.72804374437095) translate(0 31.99999999999999)"/><path d="M1166.7 389.6h-1.96v-67.38h1.95zm-5.9-244.9l1.07.26 1 .42.95.58.83.7.7.84.58.93.42 1 .26 1.08.1 1.06v112.66h-1.96V151.64l-.07-.83-.18-.75-.3-.73-.42-.67-.5-.6-.6-.5-.7-.43-.7-.3-.78-.18-.82-.06h-362.9v-1.96h362.97z" stroke="#5e5e5e" stroke-width=".05" fill="#5e5e5e"/><path d="M796.8 146.57h-1.03l.02-.97-.03-.97h1.04z" fill="#5e5e5e"/><path stroke="#5e5e5e" stroke-width=".05" fill="#5e5e5e"/><path d="M1165.7 404.86l-4.62-14.26h9.27z" fill="#5e5e5e"/><path d="M1165.7 408.02l-5.96-18.4h11.95zm-3.28-16.45l3.3 10.14 3.3-10.13z" stroke="#5e5e5e" stroke-width=".05" fill="#5e5e5e"/><path d="M1120.38 293.22a28 28 0 0 1 28-28h34.67a28 28 0 0 1 28 28 28 28 0 0 1-28 28h-34.67a28 28 0 0 1-28-28z" stroke="#5e5e5e" stroke-width="2" fill-opacity="0"/><use xlink:href="#k" transform="matrix(1,0,0,1,1132.3809523809525,269.2178613898008) translate(0 31.99999999999999)"/><path d="M195.26 759.2h-1.95v-47.5h1.96zM563.2 516.17H538.2l-.82.07-.77.18-.74.3-.67.42-.6.5-.52.6-.4.68-.3.73-.2.76-.06.84v120l-.1 1.05-.24 1.06-.42 1-.57.94-.72.83-.84.72-.93.57-1 .42-1.07.25-1.05.07H200.32l-.82.07-.77.18-.72.3-.67.42-.6.5-.5.6-.42.68-.3.73-.17.76-.07.84v.47h-1.95v-.54l.1-1.05.25-1.06.42-1 .57-.94.7-.83.84-.72.94-.57 1-.42 1.07-.25 1.05-.07H526.1l.83-.07.77-.18.72-.3.68-.42.6-.5.5-.6.42-.68.3-.73.18-.76.07-.84v-120l.08-1.05.26-1.06.42-1 .58-.94.7-.83.84-.72.94-.57 1-.42 1.07-.25 1.06-.07h25.1z" stroke="#5e5e5e" stroke-width=".05" fill="#5e5e5e"/><path d="M564.2 515.2l.03.97h-1.04v-1.94h1.03z" fill="#5e5e5e"/><path stroke="#5e5e5e" stroke-width=".05" fill="#5e5e5e"/><path d="M194.3 774.46l-4.65-14.26h9.27z" fill="#5e5e5e"/><path d="M194.3 777.62l-6-18.4h11.96zm-3.3-16.45l3.3 10.14 3.28-10.13z" stroke="#5e5e5e" stroke-width=".05" fill="#5e5e5e"/><path d="M148.95 682.7a28 28 0 0 1 28-28h34.67a28 28 0 0 1 28 28 28 28 0 0 1-28 28h-34.67a28 28 0 0 1-28-28z" stroke="#5e5e5e" stroke-width="2" fill-opacity="0"/><use xlink:href="#l" transform="matrix(1,0,0,1,160.95238095238096,658.705763957822) translate(0 31.99999999999999)"/><path d="M680.98 759.2H679v-43.14H681zm0-101.14H679V623.3H681z" stroke="#5e5e5e" stroke-width=".05" fill="#5e5e5e"/><path d="M680 622.3l.98-.02v1.05H679v-1.05z" fill="#5e5e5e"/><path stroke="#5e5e5e" stroke-width=".05" fill="#5e5e5e"/><path d="M680 774.46l-4.63-14.26h9.26z" fill="#5e5e5e"/><path d="M680 777.62l-5.98-18.4h11.96zm-3.3-16.45l3.3 10.14 3.3-10.13z" stroke="#5e5e5e" stroke-width=".05" fill="#5e5e5e"/><path d="M634.67 687.06a28 28 0 0 1 28-28h34.66a28 28 0 0 1 28 28 28 28 0 0 1-28 28h-34.66a28 28 0 0 1-28-28z" stroke="#5e5e5e" stroke-width="2" fill-opacity="0"/><use xlink:href="#m" transform="matrix(1,0,0,1,646.6666666666666,663.0639356624796) translate(0 31.99999999999999)"/><path d="M1166.7 759.2h-1.96v-47.4h1.95zM822.94 514.3l1.06.26 1.02.42.94.57.83.72.7.83.58.93.4 1 .27 1.08.08 1.06v120l.07.83.18.75.3.73.4.67.53.6.6.5.68.42.72.3.77.2.82.06h325.85l1.06.08 1.07.26 1 .42.95.57.83.72.7.83.58.93.42 1 .26 1.08.1 1.06v.64h-1.96v-.56l-.07-.83-.18-.75-.3-.73-.42-.67-.5-.6-.6-.5-.7-.42-.7-.3-.78-.2-.82-.06H833.82l-1.05-.08-1.07-.26-1-.42-.94-.57-.84-.72-.7-.83-.58-.93-.42-1-.25-1.08-.1-1.06v-120l-.05-.83-.2-.75-.3-.73-.4-.67-.5-.6-.6-.5-.68-.42-.73-.3-.76-.2-.82-.06H796.8v-1.94h25.1z" stroke="#5e5e5e" stroke-width=".05" fill="#5e5e5e"/><path d="M796.8 516.17h-1.03l.02-.97-.03-.98h1.04z" fill="#5e5e5e"/><path stroke="#5e5e5e" stroke-width=".05" fill="#5e5e5e"/><path d="M1165.7 774.46l-4.62-14.26h9.27z" fill="#5e5e5e"/><path d="M1165.7 777.62l-5.96-18.4h11.95zm-3.28-16.45l3.3 10.14 3.3-10.13z" stroke="#5e5e5e" stroke-width=".05" fill="#5e5e5e"/><path d="M1120.38 682.8a28 28 0 0 1 28-28h34.67a28 28 0 0 1 28 28 28 28 0 0 1-28 28h-34.67a28 28 0 0 1-28-28z" stroke="#5e5e5e" stroke-width="2" fill-opacity="0"/><use xlink:href="#n" transform="matrix(1,0,0,1,1132.3809523809525,658.8042451271568) translate(0 31.99999999999999)"/><path d="M1022.86 1185.6c0 58.32-51.17 105.6-114.3 105.6-63.1 0-114.27-47.28-114.27-105.6 0-58.32 51.15-105.6 114.27-105.6s114.3 47.28 114.3 105.6z" stroke="#5e5e5e" stroke-width="3" fill="#fff"/><use xlink:href="#o" transform="matrix(1,0,0,1,799.2857142857142,1085) translate(55.166666666666686 107.74999999999999)"/><path d="M1528.57 1185.6c0 58.32-51.17 105.6-114.28 105.6-63.13 0-114.3-47.28-114.3-105.6 0-58.32 51.17-105.6 114.3-105.6 63.1 0 114.27 47.28 114.27 105.6z" stroke="#5e5e5e" stroke-width="3" fill="#fff"/><use xlink:href="#p" transform="matrix(1,0,0,1,1305,1085) translate(40.7777777777778 107.74999999999999)"/><path d="M908.4 913.8h1.15V1060h-1.95V913.74zm140.53-28.02H949.8l.1-.98-.08-.97h99.1z" stroke="#5e5e5e" stroke-width=".05" fill="#5e5e5e"/><path d="M1049.93 884.8l.02.98h-1.05v-1.95h1.05z" fill="#5e5e5e"/><path stroke="#5e5e5e" stroke-width=".05" fill="#5e5e5e"/><path d="M908.57 1075.26l-4.63-14.26h9.27z" fill="#5e5e5e"/><path d="M908.57 1078.42l-5.98-18.4h11.95zm-3.3-16.45l3.3 10.14 3.3-10.13z" stroke="#5e5e5e" stroke-width=".05" fill="#5e5e5e"/><path d="M880.44 884.8a28 28 0 0 1 28-28h12.45a28 28 0 0 1 28 28 28 28 0 0 1-28 28h-12.46a28 28 0 0 1-28-28z" stroke="#5e5e5e" stroke-width="2" fill-opacity="0"/><use xlink:href="#q" transform="matrix(1,0,0,1,892.4444444444445,860.7999999999998) translate(0 31.99999999999999)"/><path d="M1415.26 1060h-1.95V913.8h1.96zM1282.5 885.77v-1.94h83.24l-.15 1.94z" stroke="#5e5e5e" stroke-width=".05" fill="#5e5e5e"/><path d="M1282.53 885.77h-1.05l.02-.97-.02-.97h1.05z" fill="#5e5e5e"/><path stroke="#5e5e5e" stroke-width=".05" fill="#5e5e5e"/><path d="M1414.3 1075.26l-4.65-14.26h9.27z" fill="#5e5e5e"/><path d="M1414.3 1078.42l-6-18.4h11.96zm-3.3-16.45l3.3 10.14 3.28-10.13z" stroke="#5e5e5e" stroke-width=".05" fill="#5e5e5e"/><path d="M1366.67 884.8a28 28 0 0 1 28-28h34.66a28 28 0 0 1 28 28 28 28 0 0 1-28 28h-34.66a28 28 0 0 1-28-28z" stroke="#5e5e5e" stroke-width="2" fill-opacity="0"/><use xlink:href="#r" transform="matrix(1,0,0,1,1378.6666666666667,860.7999999999872) translate(0 31.99999999999999)"/><path d="M1159.75 1334.6l1.06.07 1.07.26 1 .42.95.57.83.7.7.84.58.94.42 1 .26 1.07.1 1.06V1360h-1.96v-18.4l-.07-.82-.18-.77-.3-.7-.42-.7-.5-.58-.6-.52-.7-.4-.7-.3-.78-.2-.82-.06h-200.1l.1-.97-.1-.98zm-253.34-28.03h-1.94v-12.94h1.95z" stroke="#5e5e5e" stroke-width=".05" fill="#5e5e5e"/><path d="M906.4 1292.65v1h-1.94v-1.04z" fill="#5e5e5e"/><path stroke="#5e5e5e" stroke-width=".05" fill="#5e5e5e"/><path d="M1165.7 1375.26l-4.62-14.26h9.27z" fill="#5e5e5e"/><path d="M1165.7 1378.42l-5.96-18.4h11.95zm-3.28-16.45l3.3 10.14 3.3-10.13z" stroke="#5e5e5e" stroke-width=".05" fill="#5e5e5e"/><path d="M868 1335.57a28 28 0 0 1 28-28h34.67a28 28 0 0 1 28 28 28 28 0 0 1-28 28H896a28 28 0 0 1-28-28z" stroke="#5e5e5e" stroke-width="2" fill-opacity="0"/><use xlink:href="#s" transform="matrix(1,0,0,1,880,1311.5657804060183) translate(0 31.99999999999999)"/><defs><path d="M205 0l-28-72H64L36 0H1l101-248h38L239 0h-34zm-38-99l-47-123c-12 45-31 82-46 123h93" id="t"/><path d="M114-163C36-179 61-72 57 0H25l-1-190h30c1 12-1 29 2 39 6-27 23-49 58-41v29" id="u"/><path d="M141-36C126-15 110 5 73 4 37 3 15-17 15-53c-1-64 63-63 125-63 3-35-9-54-41-54-24 1-41 7-42 31l-33-3c5-37 33-52 76-52 45 0 72 20 72 64v82c-1 20 7 32 28 27v20c-31 9-61-2-59-35zM48-53c0 20 12 33 32 33 41-3 63-29 60-74-43 2-92-5-92 41" id="v"/><path d="M85-194c31 0 48 13 60 33l-1-100h32l1 261h-30c-2-10 0-23-3-31C134-8 116 4 85 4 32 4 16-35 15-94c0-66 23-100 70-100zm9 24c-40 0-46 34-46 75 0 40 6 74 45 74 42 0 51-32 51-76 0-42-9-74-50-73" id="w"/><g id="a"><use transform="matrix(0.11111111111111104,0,0,0.11111111111111104,0,0)" xlink:href="#t"/><use transform="matrix(0.11111111111111104,0,0,0.11111111111111104,26.66666666666665,0)" xlink:href="#u"/><use transform="matrix(0.11111111111111104,0,0,0.11111111111111104,39.888888888888864,0)" xlink:href="#v"/><use transform="matrix(0.11111111111111104,0,0,0.11111111111111104,62.11111111111107,0)" xlink:href="#w"/></g><path d="M209 0H11v-25l151-195H24v-28h176v25L50-27h159V0" id="x"/><path d="M100-194c63 0 86 42 84 106H49c0 40 14 67 53 68 26 1 43-12 49-29l28 8c-11 28-37 45-77 45C44 4 14-33 15-96c1-61 26-98 85-98zm52 81c6-60-76-77-97-28-3 7-6 17-6 28h103" id="y"/><path d="M24-231v-30h32v30H24zM24 0v-190h32V0H24" id="z"/><path d="M117-194c89-4 53 116 60 194h-32v-121c0-31-8-49-39-48C34-167 62-67 57 0H25l-1-190h30c1 10-1 24 2 32 11-22 29-35 61-36" id="A"/><g id="b"><use transform="matrix(0.11111111111111108,0,0,0.11111111111111108,0,0)" xlink:href="#x"/><use transform="matrix(0.11111111111111108,0,0,0.11111111111111108,24.333333333333325,0)" xlink:href="#y"/><use transform="matrix(0.11111111111111108,0,0,0.11111111111111108,46.55555555555554,0)" xlink:href="#u"/><use transform="matrix(0.11111111111111108,0,0,0.11111111111111108,59.77777777777776,0)" xlink:href="#z"/><use transform="matrix(0.11111111111111108,0,0,0.11111111111111108,68.55555555555553,0)" xlink:href="#A"/><use transform="matrix(0.11111111111111108,0,0,0.11111111111111108,90.77777777777774,0)" xlink:href="#w"/></g><path d="M185-189c-5-48-123-54-124 2 14 75 158 14 163 119 3 78-121 87-175 55-17-10-28-26-33-46l33-7c5 56 141 63 141-1 0-78-155-14-162-118-5-82 145-84 179-34 5 7 8 16 11 25" id="B"/><path d="M115-194c53 0 69 39 70 98 0 66-23 100-70 100C84 3 66-7 56-30L54 0H23l1-261h32v101c10-23 28-34 59-34zm-8 174c40 0 45-34 45-75 0-40-5-75-45-74-42 0-51 32-51 76 0 43 10 73 51 73" id="C"/><path d="M84 4C-5 8 30-112 23-190h32v120c0 31 7 50 39 49 72-2 45-101 50-169h31l1 190h-30c-1-10 1-25-2-33-11 22-28 36-60 37" id="D"/><g id="c"><use transform="matrix(0.11111111111111104,0,0,0.11111111111111104,0,0)" xlink:href="#B"/><use transform="matrix(0.11111111111111104,0,0,0.11111111111111104,26.66666666666665,0)" xlink:href="#z"/><use transform="matrix(0.11111111111111104,0,0,0.11111111111111104,35.44444444444442,0)" xlink:href="#C"/><use transform="matrix(0.11111111111111104,0,0,0.11111111111111104,57.66666666666663,0)" xlink:href="#z"/><use transform="matrix(0.11111111111111104,0,0,0.11111111111111104,66.4444444444444,0)" xlink:href="#D"/></g><path d="M127-220V0H93v-220H8v-28h204v28h-85" id="E"/><path d="M210-169c-67 3-38 105-44 169h-31v-121c0-29-5-50-35-48C34-165 62-65 56 0H25l-1-190h30c1 10-1 24 2 32 10-44 99-50 107 0 11-21 27-35 58-36 85-2 47 119 55 194h-31v-121c0-29-5-49-35-48" id="F"/><path d="M135-143c-3-34-86-38-87 0 15 53 115 12 119 90S17 21 10-45l28-5c4 36 97 45 98 0-10-56-113-15-118-90-4-57 82-63 122-42 12 7 21 19 24 35" id="G"/><path d="M100-194c62-1 85 37 85 99 1 63-27 99-86 99S16-35 15-95c0-66 28-99 85-99zM99-20c44 1 53-31 53-75 0-43-8-75-51-75s-53 32-53 75 10 74 51 75" id="H"/><g id="d"><use transform="matrix(0.11111111111111108,0,0,0.11111111111111108,0,0)" xlink:href="#E"/><use transform="matrix(0.11111111111111108,0,0,0.11111111111111108,22.888888888888882,0)" xlink:href="#z"/><use transform="matrix(0.11111111111111108,0,0,0.11111111111111108,31.666666666666657,0)" xlink:href="#F"/><use transform="matrix(0.11111111111111108,0,0,0.11111111111111108,64.88888888888887,0)" xlink:href="#z"/><use transform="matrix(0.11111111111111108,0,0,0.11111111111111108,73.66666666666664,0)" xlink:href="#G"/><use transform="matrix(0.11111111111111108,0,0,0.11111111111111108,93.66666666666663,0)" xlink:href="#H"/><use transform="matrix(0.11111111111111108,0,0,0.11111111111111108,115.88888888888886,0)" xlink:href="#v"/><use transform="matrix(0.11111111111111108,0,0,0.11111111111111108,138.11111111111106,0)" xlink:href="#u"/><use transform="matrix(0.11111111111111108,0,0,0.11111111111111108,151.3333333333333,0)" xlink:href="#v"/></g><path d="M140-251c81 0 123 46 123 126C263-46 219 4 140 4 59 4 17-45 17-125s42-126 123-126zm0 227c63 0 89-41 89-101s-29-99-89-99c-61 0-89 39-89 99S79-25 140-24" id="I"/><g id="e"><use transform="matrix(0.11111111111111108,0,0,0.11111111111111108,0,0)" xlink:href="#I"/><use transform="matrix(0.11111111111111108,0,0,0.11111111111111108,31.1111111111111,0)" xlink:href="#u"/><use transform="matrix(0.11111111111111108,0,0,0.11111111111111108,44.333333333333314,0)" xlink:href="#v"/><use transform="matrix(0.11111111111111108,0,0,0.11111111111111108,66.55555555555553,0)" xlink:href="#w"/><use transform="matrix(0.11111111111111108,0,0,0.11111111111111108,88.77777777777774,0)" xlink:href="#y"/><use transform="matrix(0.11111111111111108,0,0,0.11111111111111108,110.99999999999996,0)" xlink:href="#v"/></g><path d="M63-220v92h138v28H63V0H30v-248h175v28H63" id="J"/><path d="M177-190C167-65 218 103 67 71c-23-6-38-20-44-43l32-5c15 47 100 32 89-28v-30C133-14 115 1 83 1 29 1 15-40 15-95c0-56 16-97 71-98 29-1 48 16 59 35 1-10 0-23 2-32h30zM94-22c36 0 50-32 50-73 0-42-14-75-50-75-39 0-46 34-46 75s6 73 46 73" id="K"/><g id="f"><use transform="matrix(0.11111111111111108,0,0,0.11111111111111108,0,0)" xlink:href="#J"/><use transform="matrix(0.11111111111111108,0,0,0.11111111111111108,24.333333333333325,0)" xlink:href="#v"/><use transform="matrix(0.11111111111111108,0,0,0.11111111111111108,46.55555555555554,0)" xlink:href="#K"/><use transform="matrix(0.11111111111111108,0,0,0.11111111111111108,68.77777777777776,0)" xlink:href="#v"/><use transform="matrix(0.11111111111111108,0,0,0.11111111111111108,90.99999999999997,0)" xlink:href="#u"/><use transform="matrix(0.11111111111111108,0,0,0.11111111111111108,104.22222222222219,0)" xlink:href="#v"/><use transform="matrix(0.11111111111111108,0,0,0.11111111111111108,126.4444444444444,0)" xlink:href="#G"/></g><path d="M233-177c-1 41-23 64-60 70L243 0h-38l-65-103H63V0H30v-248c88 3 205-21 203 71zM63-129c60-2 137 13 137-47 0-61-80-42-137-45v92" id="L"/><path d="M96-169c-40 0-48 33-48 73s9 75 48 75c24 0 41-14 43-38l32 2c-6 37-31 61-74 61-59 0-76-41-82-99-10-93 101-131 147-64 4 7 5 14 7 22l-32 3c-4-21-16-35-41-35" id="M"/><g id="g"><use transform="matrix(0.11111111111111108,0,0,0.11111111111111108,0,0)" xlink:href="#L"/><use transform="matrix(0.11111111111111108,0,0,0.11111111111111108,28.777777777777768,0)" xlink:href="#z"/><use transform="matrix(0.11111111111111108,0,0,0.11111111111111108,37.55555555555554,0)" xlink:href="#F"/><use transform="matrix(0.11111111111111108,0,0,0.11111111111111108,70.77777777777776,0)" xlink:href="#A"/><use transform="matrix(0.11111111111111108,0,0,0.11111111111111108,92.99999999999997,0)" xlink:href="#z"/><use transform="matrix(0.11111111111111108,0,0,0.11111111111111108,101.77777777777774,0)" xlink:href="#M"/><use transform="matrix(0.11111111111111108,0,0,0.11111111111111108,121.77777777777774,0)" xlink:href="#D"/></g><path d="M160-131c35 5 61 23 61 61C221 17 115-2 30 0v-248c76 3 177-17 177 60 0 33-19 50-47 57zm-97-11c50-1 110 9 110-42 0-47-63-36-110-37v79zm0 115c55-2 124 14 124-45 0-56-70-42-124-44v89" id="N"/><path d="M106-169C34-169 62-67 57 0H25v-261h32l-1 103c12-21 28-36 61-36 89 0 53 116 60 194h-32v-121c2-32-8-49-39-48" id="O"/><path d="M59-47c-2 24 18 29 38 22v24C64 9 27 4 27-40v-127H5v-23h24l9-43h21v43h35v23H59v120" id="P"/><g id="h"><use transform="matrix(0.10370358024691358,0,0,0.10370358024691358,0,0)" xlink:href="#N"/><use transform="matrix(0.10370358024691358,0,0,0.10370358024691358,24.88885925925926,0)" xlink:href="#D"/><use transform="matrix(0.10370358024691358,0,0,0.10370358024691358,45.629575308641975,0)" xlink:href="#M"/><use transform="matrix(0.10370358024691358,0,0,0.10370358024691358,64.29621975308642,0)" xlink:href="#O"/><use transform="matrix(0.10370358024691358,0,0,0.10370358024691358,85.03693580246913,0)" xlink:href="#v"/><use transform="matrix(0.10370358024691358,0,0,0.10370358024691358,105.77765185185184,0)" xlink:href="#u"/><use transform="matrix(0.10370358024691358,0,0,0.10370358024691358,118.11837790123457,0)" xlink:href="#y"/><use transform="matrix(0.10370358024691358,0,0,0.10370358024691358,138.85909395061728,0)" xlink:href="#G"/><use transform="matrix(0.10370358024691358,0,0,0.10370358024691358,157.52573839506172,0)" xlink:href="#P"/></g><path fill="#333" d="M128-127c34 4 56 21 59 58 7 91-148 94-172 28-4-9-6-17-7-26l51-5c1 24 16 35 40 36 23 0 39-12 38-36-1-31-31-36-65-34v-40c32 2 59-3 59-33 0-20-13-33-34-33s-33 13-35 32l-50-3c6-44 37-68 86-68 50 0 83 20 83 66 0 35-22 52-53 58" id="Q"/><path fill="#333" d="M52 0c1-96 47-148 87-207H15v-41h169v40c-36 62-79 113-81 208H52" id="R"/><path fill="#333" d="M165-50V0h-47v-50H5v-38l105-160h55v161h33v37h-33zm-47-37l2-116L46-87h72" id="S"/><g id="i"><use transform="matrix(0.11111111111111108,0,0,0.11111111111111108,0,0)" xlink:href="#Q"/><use transform="matrix(0.11111111111111108,0,0,0.11111111111111108,22.222222222222214,0)" xlink:href="#R"/><use transform="matrix(0.11111111111111108,0,0,0.11111111111111108,44.44444444444443,0)" xlink:href="#S"/></g><path fill="#333" d="M182-182c0 78-84 86-111 141h115V0H12c-6-101 99-100 120-180 1-22-12-31-33-32-23 0-32 14-35 34l-49-3c5-45 32-70 84-70 51 0 83 22 83 69" id="T"/><path fill="#333" d="M139-81c0-46-55-55-73-27H18l9-140h149v37H72l-4 63c44-38 133-4 122 66C201 21 21 35 11-62l49-4c5 18 15 30 39 30 26 0 40-18 40-45" id="U"/><g id="j"><use transform="matrix(0.11111111111111108,0,0,0.11111111111111108,0,0)" xlink:href="#T"/><use transform="matrix(0.11111111111111108,0,0,0.11111111111111108,22.222222222222214,0)" xlink:href="#U"/><use transform="matrix(0.11111111111111108,0,0,0.11111111111111108,44.44444444444443,0)" xlink:href="#Q"/></g><path fill="#333" d="M99-251c69 0 84 53 88 123 5 99-61 162-144 118-15-8-21-25-26-45l46-6c4 31 50 33 63 7 7-15 12-36 12-60-9 18-29 28-54 28-48 0-72-32-72-82 0-55 31-83 87-83zm-1 128c24 0 37-16 37-39 0-27-10-51-37-51-25 0-35 19-35 45 0 25 10 45 35 45" id="V"/><g id="k"><use transform="matrix(0.11111111111111108,0,0,0.11111111111111108,0,0)" xlink:href="#Q"/><use transform="matrix(0.11111111111111108,0,0,0.11111111111111108,22.222222222222214,0)" xlink:href="#T"/><use transform="matrix(0.11111111111111108,0,0,0.11111111111111108,44.44444444444443,0)" xlink:href="#V"/></g><path fill="#333" d="M138-131c27 9 52 24 51 61 0 53-36 74-89 74S11-19 11-69c0-35 22-54 51-61-78-25-46-121 38-121 51 0 83 19 83 66 0 30-18 49-45 54zm-38-16c24 0 32-13 32-36 1-23-11-34-32-34-22 0-33 12-32 34 0 22 9 36 32 36zm1 116c27 0 37-17 37-43 0-25-13-39-39-39-24 0-37 15-37 40 0 27 11 42 39 42" id="W"/><path fill="#333" d="M101-251c68 0 84 54 84 127C185-50 166 4 99 4S15-52 14-124c-1-75 17-127 87-127zm-1 216c37-5 36-46 36-89s4-89-36-89c-39 0-36 45-36 89 0 43-3 85 36 89" id="X"/><g id="l"><use transform="matrix(0.11111111111111108,0,0,0.11111111111111108,0,0)" xlink:href="#Q"/><use transform="matrix(0.11111111111111108,0,0,0.11111111111111108,22.222222222222214,0)" xlink:href="#W"/><use transform="matrix(0.11111111111111108,0,0,0.11111111111111108,44.44444444444443,0)" xlink:href="#X"/></g><path fill="#333" d="M23 0v-37h61v-169l-59 37v-38l62-41h46v211h57V0H23" id="Y"/><g id="m"><use transform="matrix(0.11111111111111108,0,0,0.11111111111111108,0,0)" xlink:href="#Y"/><use transform="matrix(0.11111111111111108,0,0,0.11111111111111108,22.222222222222214,0)" xlink:href="#R"/><use transform="matrix(0.11111111111111108,0,0,0.11111111111111108,44.44444444444443,0)" xlink:href="#W"/></g><g id="n"><use transform="matrix(0.11111111111111108,0,0,0.11111111111111108,0,0)" xlink:href="#Y"/><use transform="matrix(0.11111111111111108,0,0,0.11111111111111108,22.222222222222214,0)" xlink:href="#V"/><use transform="matrix(0.11111111111111108,0,0,0.11111111111111108,44.44444444444443,0)" xlink:href="#Q"/></g><path d="M30-248c87 1 191-15 191 75 0 78-77 80-158 76V0H30v-248zm33 125c57 0 124 11 124-50 0-59-68-47-124-48v98" id="Z"/><g id="o"><use transform="matrix(0.11111111111111108,0,0,0.11111111111111108,0,0)" xlink:href="#Z"/><use transform="matrix(0.11111111111111108,0,0,0.11111111111111108,26.666666666666657,0)" xlink:href="#z"/><use transform="matrix(0.11111111111111108,0,0,0.11111111111111108,35.44444444444443,0)" xlink:href="#P"/><use transform="matrix(0.11111111111111108,0,0,0.11111111111111108,46.555555555555536,0)" xlink:href="#y"/><use transform="matrix(0.11111111111111108,0,0,0.11111111111111108,68.77777777777774,0)" xlink:href="#G"/><use transform="matrix(0.11111111111111108,0,0,0.11111111111111108,88.77777777777774,0)" xlink:href="#P"/><use transform="matrix(0.11111111111111108,0,0,0.11111111111111108,99.88888888888886,0)" xlink:href="#z"/></g><path d="M212-179c-10-28-35-45-73-45-59 0-87 40-87 99 0 60 29 101 89 101 43 0 62-24 78-52l27 14C228-24 195 4 139 4 59 4 22-46 18-125c-6-104 99-153 187-111 19 9 31 26 39 46" id="aa"/><path d="M108 0H70L1-190h34L89-25l56-165h34" id="ab"/><g id="p"><use transform="matrix(0.11111111111111108,0,0,0.11111111111111108,0,0)" xlink:href="#aa"/><use transform="matrix(0.11111111111111108,0,0,0.11111111111111108,28.777777777777768,0)" xlink:href="#u"/><use transform="matrix(0.11111111111111108,0,0,0.11111111111111108,41.999999999999986,0)" xlink:href="#v"/><use transform="matrix(0.11111111111111108,0,0,0.11111111111111108,64.2222222222222,0)" xlink:href="#z"/><use transform="matrix(0.11111111111111108,0,0,0.11111111111111108,72.99999999999997,0)" xlink:href="#H"/><use transform="matrix(0.11111111111111108,0,0,0.11111111111111108,95.22222222222219,0)" xlink:href="#ab"/><use transform="matrix(0.11111111111111108,0,0,0.11111111111111108,115.22222222222216,0)" xlink:href="#v"/></g><g id="q"><use transform="matrix(0.11111111111111108,0,0,0.11111111111111108,0,0)" xlink:href="#V"/><use transform="matrix(0.11111111111111108,0,0,0.11111111111111108,22.222222222222214,0)" xlink:href="#R"/></g><path fill="#333" d="M115-159c48 0 72 30 72 78 0 54-30 85-83 85-64 0-91-50-91-122 0-98 58-163 141-120 15 8 21 24 27 44l-47 6c-5-31-48-31-61-4-7 14-11 33-11 60 9-17 28-27 53-27zM102-35c24 0 36-20 36-45s-11-43-37-43c-23 0-36 14-36 38 0 27 11 50 37 50" id="ac"/><g id="r"><use transform="matrix(0.11111111111111108,0,0,0.11111111111111108,0,0)" xlink:href="#Y"/><use transform="matrix(0.11111111111111108,0,0,0.11111111111111108,22.222222222222214,0)" xlink:href="#S"/><use transform="matrix(0.11111111111111108,0,0,0.11111111111111108,44.44444444444443,0)" xlink:href="#ac"/></g><g id="s"><use transform="matrix(0.11111111111111108,0,0,0.11111111111111108,0,0)" xlink:href="#Y"/><use transform="matrix(0.11111111111111108,0,0,0.11111111111111108,22.222222222222214,0)" xlink:href="#X"/><use transform="matrix(0.11111111111111108,0,0,0.11111111111111108,44.44444444444443,0)" xlink:href="#Y"/></g></defs></g></svg>