<svg xmlns="http://www.w3.org/2000/svg" xmlns:xlink="http://www.w3.org/1999/xlink" xmlns:lucid="lucid" width="2741.5" height="1821.5"><g transform="translate(601.5 400)" lucid:page-tab-id="0_0"><path d="M-1806.87-1258.84h5484.6v3840.5h-5484.6z" fill="#fff"/><path d="M1120-60c0 66.27-53.73 120-120 120-66.27 0-120-53.73-120-120 0-66.27 53.73-120 120-120 66.27 0 120 53.73 120 120z" stroke="#5e5e5e" stroke-width="3" fill="#6db1ff"/><use xlink:href="#a" transform="matrix(1,0,0,1,885,-175) translate(33.29203703703708 123.50694444444443)"/><path d="M540 490.5c0 61.03-58.2 110.5-130 110.5s-130-49.47-130-110.5S338.2 380 410 380s130 49.47 130 110.5z" stroke="#5e5e5e" stroke-width="3" fill="#6db1ff"/><use xlink:href="#b" transform="matrix(1,0,0,1,285.0000000000001,385) translate(5.395061728395049 84.66666666666667)"/><use xlink:href="#c" transform="matrix(1,0,0,1,285.0000000000001,385) translate(185.34567901234567 84.66666666666667)"/><use xlink:href="#d" transform="matrix(1,0,0,1,285.0000000000001,385) translate(39.296296296296276 148.66666666666669)"/><path d="M1720 440c0 66.27-53.73 120-120 120-66.27 0-120-53.73-120-120 0-66.27 53.73-120 120-120 66.27 0 120 53.73 120 120z" stroke="#5e5e5e" stroke-width="3" fill="#6db1ff"/><use xlink:href="#e" transform="matrix(1,0,0,1,1485,325) translate(32.93209876543209 61.66666666666666)"/><use xlink:href="#c" transform="matrix(1,0,0,1,1485,325) translate(85.87037037037037 125.66666666666666)"/><use xlink:href="#d" transform="matrix(1,0,0,1,1485,325) translate(29.796296296296276 189.66666666666669)"/><path d="M-580 426.26a6 6 0 0 1 6-6h248a6 6 0 0 1 6 6v168a6 6 0 0 1-6 6h-248a6 6 0 0 1-6-6z" stroke="#5e5e5e" stroke-width="3" fill="#6db1ff"/><use xlink:href="#f" transform="matrix(1,0,0,1,-568,432.25840533340715) translate(70.23765432098766 88.31944444444446)"/><path d="M510.26 418.14L908.14 20.26M1488.94 388.94L1102.12 2.12" stroke="#5e5e5e" stroke-width="3" stroke-linecap="round" fill="none"/><path d="M1807.66 806a6 6 0 0 1 6-6h248a6 6 0 0 1 6 6v168a6 6 0 0 1-6 6h-248a6 6 0 0 1-6-6z" stroke="#5e5e5e" stroke-width="3" fill="#6db1ff"/><use xlink:href="#g" transform="matrix(1,0,0,1,1819.6636297838177,812) translate(-6.845679012345698 89.11111111111111)"/><path d="M1465.1 806a6 6 0 0 1 6-6h248a6 6 0 0 1 6 6v168a6 6 0 0 1-6 6h-248a6 6 0 0 1-6-6z" stroke="#5e5e5e" stroke-width="3" fill="#6db1ff"/><use xlink:href="#h" transform="matrix(1,0,0,1,1477.109086522545,812) translate(48.63271604938272 88.31944444444446)"/><path d="M1122.56 806a6 6 0 0 1 6-6h248a6 6 0 0 1 6 6v168a6 6 0 0 1-6 6h-248a6 6 0 0 1-6-6z" stroke="#5e5e5e" stroke-width="3" fill="#6db1ff"/><use xlink:href="#h" transform="matrix(1,0,0,1,1134.5545432612726,812) translate(48.63271604938272 88.31944444444446)"/><path d="M780 806a6 6 0 0 1 6-6h248a6 6 0 0 1 6 6v168a6 6 0 0 1-6 6H786a6 6 0 0 1-6-6z" stroke="#5e5e5e" stroke-width="3" fill="#6db1ff"/><use xlink:href="#f" transform="matrix(1,0,0,1,792,812) translate(70.23765432098766 88.31944444444446)"/><path d="M540 1226a6 6 0 0 1 6-6h248a6 6 0 0 1 6 6v168a6 6 0 0 1-6 6H546a6 6 0 0 1-6-6z" stroke="#5e5e5e" stroke-width="3" fill="#6db1ff"/><use xlink:href="#g" transform="matrix(1,0,0,1,552.0000000000001,1232) translate(-6.845679012345698 89.11111111111111)"/><path d="M40 1226a6 6 0 0 1 6-6h248a6 6 0 0 1 6 6v168a6 6 0 0 1-6 6H46a6 6 0 0 1-6-6z" stroke="#5e5e5e" stroke-width="3" fill="#6db1ff"/><use xlink:href="#f" transform="matrix(1,0,0,1,52,1232) translate(70.23765432098766 88.31944444444446)"/><path d="M540 890c0 66.27-53.73 120-120 120-66.27 0-120-53.73-120-120 0-66.27 53.73-120 120-120 66.27 0 120 53.73 120 120z" stroke="#5e5e5e" stroke-width="3" fill="#6db1ff"/><use xlink:href="#i" transform="matrix(1,0,0,1,305,775) translate(36.45561728395062 123.50694444444446)"/><path d="M-455.66 418.34L885.72-69.9M1242.12 798.05l271.9-271.9M1955.4 798.06L1684.73 527.4M1601.5 561.5v237M421.5 601.5v167" stroke="#5e5e5e" stroke-width="3" stroke-linecap="round" fill="none"/><path d="M-200 806.18a6 6 0 0 1 6-6H54a6 6 0 0 1 6 6v168a6 6 0 0 1-6 6h-248a6 6 0 0 1-6-6z" stroke="#5e5e5e" stroke-width="3" fill="#6db1ff"/><use xlink:href="#g" transform="matrix(1,0,0,1,-187.9999999999999,812.1761963158317) translate(-6.845679012345698 89.11111111111111)"/><path d="M-77.95 798.13L318 569.53M915.64 798.1l-381.5-267.13M162.12 1217.88l216.82-216.82M678.94 1217.88l-216.82-216.82" stroke="#5e5e5e" stroke-width="3" stroke-linecap="round" fill="none"/><path d="M95.03 106a6 6 0 0 1 6-6h228a6 6 0 0 1 6 6v48a6 6 0 0 1-6 6h-228a6 6 0 0 1-6-6z" fill="none"/><use xlink:href="#j" transform="matrix(1,0,0,1,95.0340024014987,100) translate(80.55555555555556 38)"/><use xlink:href="#k" transform="matrix(1,0,0,1,95.0340024014987,100) translate(115 38)"/><path d="M1180 106a6 6 0 0 1 6-6h228a6 6 0 0 1 6 6v48a6 6 0 0 1-6 6h-228a6 6 0 0 1-6-6z" fill="none"/><use xlink:href="#l" transform="matrix(1,0,0,1,1180,100) translate(80.55555555555556 38)"/><use xlink:href="#m" transform="matrix(1,0,0,1,1180,100) translate(115 38)"/><path d="M677.73 206a6 6 0 0 1 6-6h228a6 6 0 0 1 6 6v48a6 6 0 0 1-6 6h-228a6 6 0 0 1-6-6z" fill="none"/><use xlink:href="#n" transform="matrix(1,0,0,1,677.7316496364581,200) translate(52.22222222222223 32)"/><use xlink:href="#o" transform="matrix(1,0,0,1,677.7316496364581,200) translate(110 32)"/><use xlink:href="#p" transform="matrix(1,0,0,1,677.7316496364581,200) translate(165.55555555555554 32)"/><use xlink:href="#q" transform="matrix(1,0,0,1,677.7316496364581,200) translate(86.11111111111111 80)"/><path d="M20 606a6 6 0 0 1 6-6h228a6 6 0 0 1 6 6v48a6 6 0 0 1-6 6H26a6 6 0 0 1-6-6z" fill="none"/><use xlink:href="#r" transform="matrix(1,0,0,1,20,600) translate(84.44444444444444 38)"/><path d="M647.65 607a6 6 0 0 1 6-6h228a6 6 0 0 1 6 6v48a6 6 0 0 1-6 6h-228a6 6 0 0 1-6-6z" fill="none"/><use xlink:href="#s" transform="matrix(1,0,0,1,647.6469080251813,601) translate(73.5 38)"/><path d="M20 1076.1a6 6 0 0 1 6-6h228a6 6 0 0 1 6 6v48a6 6 0 0 1-6 6H26a6 6 0 0 1-6-6z" fill="none"/><use xlink:href="#t" transform="matrix(1,0,0,1,20,1070.0880981579157) translate(85.61111111111111 38)"/><path d="M508.14 1066a6 6 0 0 1 6-6h228a6 6 0 0 1 6 6v48a6 6 0 0 1-6 6h-228a6 6 0 0 1-6-6z" fill="none"/><use xlink:href="#u" transform="matrix(1,0,0,1,508.13708498984727,1060) translate(70.05555555555556 38)"/><path d="M441.06 691.5a6 6 0 0 1 6-6h228a6 6 0 0 1 6 6v48a6 6 0 0 1-6 6h-228a6 6 0 0 1-6-6z" fill="none"/><use xlink:href="#v" transform="matrix(1,0,0,1,441.06066017177966,685.5) translate(-6.555555555555571 38)"/><path d="M1200.02 586a6 6 0 0 1 6-6h228a6 6 0 0 1 6 6v48a6 6 0 0 1-6 6h-228a6 6 0 0 1-6-6z" fill="none"/><g><use xlink:href="#r" transform="matrix(1,0,0,1,1200.0167217586363,580) translate(84.44444444444444 38)"/></g><path d="M1880 626a6 6 0 0 1 6-6h228a6 6 0 0 1 6 6v48a6 6 0 0 1-6 6h-228a6 6 0 0 1-6-6z" fill="none"/><g><use xlink:href="#s" transform="matrix(1,0,0,1,1880,620) translate(73.5 38)"/></g><path d="M1603 686a6 6 0 0 1 6-6h228a6 6 0 0 1 6 6v48a6 6 0 0 1-6 6h-228a6 6 0 0 1-6-6z" fill="none"/><g><use xlink:href="#v" transform="matrix(1,0,0,1,1603,680) translate(-6.555555555555571 38)"/></g><path d="M560-374a6 6 0 0 1 6-6h948a6 6 0 0 1 6 6v148a6 6 0 0 1-6 6H566a6 6 0 0 1-6-6z" fill="none"/><g><use xlink:href="#w" transform="matrix(1,0,0,1,560,-380) translate(206.2962962962963 93.33333333333334)"/><use xlink:href="#x" transform="matrix(1,0,0,1,560,-380) translate(420.74074074074076 93.33333333333334)"/><use xlink:href="#y" transform="matrix(1,0,0,1,560,-380) translate(513.3333333333334 93.33333333333334)"/></g><defs><path d="M233-177c-1 41-23 64-60 70L243 0h-38l-65-103H63V0H30v-248c88 3 205-21 203 71zM63-129c60-2 137 13 137-47 0-61-80-42-137-45v92" id="z"/><path d="M100-194c63 0 86 42 84 106H49c0 40 14 67 53 68 26 1 43-12 49-29l28 8c-11 28-37 45-77 45C44 4 14-33 15-96c1-61 26-98 85-98zm52 81c6-60-76-77-97-28-3 7-6 17-6 28h103" id="A"/><path d="M117-194c89-4 53 116 60 194h-32v-121c0-31-8-49-39-48C34-167 62-67 57 0H25l-1-190h30c1 10-1 24 2 32 11-22 29-35 61-36" id="B"/><path d="M85-194c31 0 48 13 60 33l-1-100h32l1 261h-30c-2-10 0-23-3-31C134-8 116 4 85 4 32 4 16-35 15-94c0-66 23-100 70-100zm9 24c-40 0-46 34-46 75 0 40 6 74 45 74 42 0 51-32 51-76 0-42-9-74-50-73" id="C"/><path d="M141-36C126-15 110 5 73 4 37 3 15-17 15-53c-1-64 63-63 125-63 3-35-9-54-41-54-24 1-41 7-42 31l-33-3c5-37 33-52 76-52 45 0 72 20 72 64v82c-1 20 7 32 28 27v20c-31 9-61-2-59-35zM48-53c0 20 12 33 32 33 41-3 63-29 60-74-43 2-92-5-92 41" id="D"/><g id="a"><use transform="matrix(0.15432098765432092,0,0,0.15432098765432092,0,0)" xlink:href="#z"/><use transform="matrix(0.15432098765432092,0,0,0.15432098765432092,39.96913580246912,0)" xlink:href="#A"/><use transform="matrix(0.15432098765432092,0,0,0.15432098765432092,70.8333333333333,0)" xlink:href="#B"/><use transform="matrix(0.15432098765432092,0,0,0.15432098765432092,101.69753086419749,0)" xlink:href="#C"/><use transform="matrix(0.15432098765432092,0,0,0.15432098765432092,132.56172839506166,0)" xlink:href="#D"/></g><path d="M197 0v-115H63V0H30v-248h33v105h134v-105h34V0h-34" id="E"/><path d="M24-231v-30h32v30H24zM24 0v-190h32V0H24" id="F"/><path d="M135-143c-3-34-86-38-87 0 15 53 115 12 119 90S17 21 10-45l28-5c4 36 97 45 98 0-10-56-113-15-118-90-4-57 82-63 122-42 12 7 21 19 24 35" id="G"/><path d="M59-47c-2 24 18 29 38 22v24C64 9 27 4 27-40v-127H5v-23h24l9-43h21v43h35v23H59v120" id="H"/><path d="M100-194c62-1 85 37 85 99 1 63-27 99-86 99S16-35 15-95c0-66 28-99 85-99zM99-20c44 1 53-31 53-75 0-43-8-75-51-75s-53 32-53 75 10 74 51 75zM76-211c8-23 27-35 38-54h36v5l-58 49H76" id="I"/><path d="M114-163C36-179 61-72 57 0H25l-1-190h30c1 12-1 29 2 39 6-27 23-49 58-41v29" id="J"/><g id="b"><use transform="matrix(0.1358024691358025,0,0,0.1358024691358025,0,0)" xlink:href="#E"/><use transform="matrix(0.1358024691358025,0,0,0.1358024691358025,35.17283950617284,0)" xlink:href="#F"/><use transform="matrix(0.1358024691358025,0,0,0.1358024691358025,45.90123456790124,0)" xlink:href="#G"/><use transform="matrix(0.1358024691358025,0,0,0.1358024691358025,70.34567901234568,0)" xlink:href="#H"/><use transform="matrix(0.1358024691358025,0,0,0.1358024691358025,83.92592592592594,0)" xlink:href="#I"/><use transform="matrix(0.1358024691358025,0,0,0.1358024691358025,111.08641975308643,0)" xlink:href="#J"/><use transform="matrix(0.1358024691358025,0,0,0.1358024691358025,127.24691358024694,0)" xlink:href="#F"/><use transform="matrix(0.1358024691358025,0,0,0.1358024691358025,137.97530864197532,0)" xlink:href="#D"/></g><g id="c"><use transform="matrix(0.14814814814814817,0,0,0.14814814814814817,0,0)" xlink:href="#C"/><use transform="matrix(0.14814814814814817,0,0,0.14814814814814817,29.629629629629633,0)" xlink:href="#A"/></g><path d="M212-179c-10-28-35-45-73-45-59 0-87 40-87 99 0 60 29 101 89 101 43 0 62-24 78-52l27 14C228-24 195 4 139 4 59 4 22-46 18-125c-6-104 99-153 187-111 19 9 31 26 39 46" id="K"/><path d="M100-194c63 0 86 42 84 106H49c0 40 14 67 53 68 26 1 43-12 49-29l28 8c-11 28-37 45-77 45C44 4 14-33 15-96c1-61 26-98 85-98zm52 81c6-60-76-77-97-28-3 7-6 17-6 28h103zm-74-98c8-23 27-35 38-54h36v5l-58 49H78" id="L"/><path d="M100-194c62-1 85 37 85 99 1 63-27 99-86 99S16-35 15-95c0-66 28-99 85-99zM99-20c44 1 53-31 53-75 0-43-8-75-51-75s-53 32-53 75 10 74 51 75" id="M"/><g id="d"><use transform="matrix(0.14814814814814817,0,0,0.14814814814814817,0,0)" xlink:href="#K"/><use transform="matrix(0.14814814814814817,0,0,0.14814814814814817,38.370370370370374,0)" xlink:href="#J"/><use transform="matrix(0.14814814814814817,0,0,0.14814814814814817,56.00000000000001,0)" xlink:href="#L"/><use transform="matrix(0.14814814814814817,0,0,0.14814814814814817,85.62962962962965,0)" xlink:href="#C"/><use transform="matrix(0.14814814814814817,0,0,0.14814814814814817,115.25925925925928,0)" xlink:href="#F"/><use transform="matrix(0.14814814814814817,0,0,0.14814814814814817,126.96296296296299,0)" xlink:href="#H"/><use transform="matrix(0.14814814814814817,0,0,0.14814814814814817,141.7777777777778,0)" xlink:href="#M"/></g><g id="e"><use transform="matrix(0.1358024691358025,0,0,0.1358024691358025,0,0)" xlink:href="#E"/><use transform="matrix(0.1358024691358025,0,0,0.1358024691358025,35.17283950617284,0)" xlink:href="#F"/><use transform="matrix(0.1358024691358025,0,0,0.1358024691358025,45.90123456790124,0)" xlink:href="#G"/><use transform="matrix(0.1358024691358025,0,0,0.1358024691358025,70.34567901234568,0)" xlink:href="#H"/><use transform="matrix(0.1358024691358025,0,0,0.1358024691358025,83.92592592592594,0)" xlink:href="#I"/><use transform="matrix(0.1358024691358025,0,0,0.1358024691358025,111.08641975308643,0)" xlink:href="#J"/><use transform="matrix(0.1358024691358025,0,0,0.1358024691358025,127.24691358024694,0)" xlink:href="#F"/><use transform="matrix(0.1358024691358025,0,0,0.1358024691358025,137.97530864197532,0)" xlink:href="#D"/></g><path d="M205 0l-28-72H64L36 0H1l101-248h38L239 0h-34zm-38-99l-47-123c-12 45-31 82-46 123h93" id="N"/><path d="M24 0v-261h32V0H24" id="O"/><g id="f"><use transform="matrix(0.15432098765432098,0,0,0.15432098765432098,0,0)" xlink:href="#N"/><use transform="matrix(0.15432098765432098,0,0,0.15432098765432098,37.03703703703704,0)" xlink:href="#O"/><use transform="matrix(0.15432098765432098,0,0,0.15432098765432098,49.22839506172839,0)" xlink:href="#H"/><use transform="matrix(0.15432098765432098,0,0,0.15432098765432098,64.6604938271605,0)" xlink:href="#M"/></g><path d="M240 0l2-218c-23 76-54 145-80 218h-23L58-218 59 0H30v-248h44l77 211c21-75 51-140 76-211h43V0h-30" id="P"/><g id="g"><use transform="matrix(0.15432098765432098,0,0,0.15432098765432098,0,0)" xlink:href="#P"/><use transform="matrix(0.15432098765432098,0,0,0.15432098765432098,46.141975308641975,0)" xlink:href="#M"/><use transform="matrix(0.15432098765432098,0,0,0.15432098765432098,77.00617283950618,0)" xlink:href="#C"/><use transform="matrix(0.15432098765432098,0,0,0.15432098765432098,107.87037037037038,0)" xlink:href="#A"/><use transform="matrix(0.15432098765432098,0,0,0.15432098765432098,138.73456790123458,0)" xlink:href="#J"/><use transform="matrix(0.15432098765432098,0,0,0.15432098765432098,157.0987654320988,0)" xlink:href="#D"/><use transform="matrix(0.15432098765432098,0,0,0.15432098765432098,187.962962962963,0)" xlink:href="#C"/><use transform="matrix(0.15432098765432098,0,0,0.15432098765432098,218.8271604938272,0)" xlink:href="#M"/></g><path d="M160-131c35 5 61 23 61 61C221 17 115-2 30 0v-248c76 3 177-17 177 60 0 33-19 50-47 57zm-97-11c50-1 110 9 110-42 0-47-63-36-110-37v79zm0 115c55-2 124 14 124-45 0-56-70-42-124-44v89" id="Q"/><path d="M141 0L90-78 38 0H4l68-98-65-92h35l48 74 47-74h35l-64 92 68 98h-35" id="R"/><g id="h"><use transform="matrix(0.15432098765432098,0,0,0.15432098765432098,0,0)" xlink:href="#Q"/><use transform="matrix(0.15432098765432098,0,0,0.15432098765432098,37.03703703703704,0)" xlink:href="#D"/><use transform="matrix(0.15432098765432098,0,0,0.15432098765432098,67.90123456790124,0)" xlink:href="#F"/><use transform="matrix(0.15432098765432098,0,0,0.15432098765432098,80.0925925925926,0)" xlink:href="#R"/><use transform="matrix(0.15432098765432098,0,0,0.15432098765432098,107.87037037037037,0)" xlink:href="#M"/></g><path d="M30-248c118-7 216 8 213 122C240-48 200 0 122 0H30v-248zM63-27c89 8 146-16 146-99s-60-101-146-95v194" id="S"/><path d="M34 0v-190h32V0H34zM24-211c8-23 27-35 38-54h36v5l-58 49H24" id="T"/><path d="M108 0H70L1-190h34L89-25l56-165h34" id="U"/><g id="i"><use transform="matrix(0.15432098765432098,0,0,0.15432098765432098,0,0)" xlink:href="#S"/><use transform="matrix(0.15432098765432098,0,0,0.15432098765432098,39.96913580246913,0)" xlink:href="#T"/><use transform="matrix(0.15432098765432098,0,0,0.15432098765432098,55.40123456790122,0)" xlink:href="#U"/><use transform="matrix(0.15432098765432098,0,0,0.15432098765432098,83.17901234567898,0)" xlink:href="#F"/><use transform="matrix(0.15432098765432098,0,0,0.15432098765432098,95.37037037037035,0)" xlink:href="#C"/><use transform="matrix(0.15432098765432098,0,0,0.15432098765432098,126.23456790123456,0)" xlink:href="#D"/></g><path d="M18-100v-36l175-74v27L42-118l151 64v27" id="V"/><use transform="matrix(0.1111111111111111,0,0,0.1111111111111111,0,0)" xlink:href="#V" id="j"/><path d="M27 0v-27h64v-190l-56 39v-29l58-41h29v221h61V0H27" id="W"/><path d="M54-142c48-35 137-8 131 61C196 18 31 33 14-55l32-4c7 23 22 37 52 37 35-1 51-22 54-58 4-55-73-65-99-34H22l8-134h141v27H59" id="X"/><g id="k"><use transform="matrix(0.1111111111111111,0,0,0.1111111111111111,0,0)" xlink:href="#W"/><use transform="matrix(0.1111111111111111,0,0,0.1111111111111111,22.22222222222222,0)" xlink:href="#X"/></g><path d="M18-27v-27l151-64-151-65v-27l175 74v36" id="Y"/><use transform="matrix(0.1111111111111111,0,0,0.1111111111111111,0,0)" xlink:href="#Y" id="l"/><path d="M126-127c33 6 58 20 58 59 0 88-139 92-164 29-3-8-5-16-6-25l32-3c6 27 21 44 54 44 32 0 52-15 52-46 0-38-36-46-79-43v-28c39 1 72-4 72-42 0-27-17-43-46-43-28 0-47 15-49 41l-32-3c6-42 35-63 81-64 48-1 79 21 79 65 0 36-21 52-52 59" id="Z"/><g id="m"><use transform="matrix(0.1111111111111111,0,0,0.1111111111111111,0,0)" xlink:href="#Z"/><use transform="matrix(0.1111111111111111,0,0,0.1111111111111111,22.22222222222222,0)" xlink:href="#X"/></g><path d="M18-150v-26h174v26H18zm0 90v-26h174v26H18" id="aa"/><g id="n"><use transform="matrix(0.1111111111111111,0,0,0.1111111111111111,0,0)" xlink:href="#Y"/><use transform="matrix(0.1111111111111111,0,0,0.1111111111111111,23.333333333333332,0)" xlink:href="#aa"/></g><g id="o"><use transform="matrix(0.1111111111111111,0,0,0.1111111111111111,0,0)" xlink:href="#W"/><use transform="matrix(0.1111111111111111,0,0,0.1111111111111111,22.22222222222222,0)" xlink:href="#X"/></g><use transform="matrix(0.1111111111111111,0,0,0.1111111111111111,0,0)" xlink:href="#A" id="p"/><g id="q"><use transform="matrix(0.1111111111111111,0,0,0.1111111111111111,0,0)" xlink:href="#V"/><use transform="matrix(0.1111111111111111,0,0,0.1111111111111111,23.333333333333332,0)" xlink:href="#Z"/><use transform="matrix(0.1111111111111111,0,0,0.1111111111111111,45.55555555555556,0)" xlink:href="#X"/></g><g id="r"><use transform="matrix(0.1111111111111111,0,0,0.1111111111111111,0,0)" xlink:href="#Q"/><use transform="matrix(0.1111111111111111,0,0,0.1111111111111111,26.666666666666664,0)" xlink:href="#M"/><use transform="matrix(0.1111111111111111,0,0,0.1111111111111111,48.888888888888886,0)" xlink:href="#D"/></g><path d="M84 4C-5 8 30-112 23-190h32v120c0 31 7 50 39 49 72-2 45-101 50-169h31l1 190h-30c-1-10 1-25-2-33-11 22-28 36-60 37" id="ab"/><path d="M210-169c-67 3-38 105-44 169h-31v-121c0-29-5-50-35-48C34-165 62-65 56 0H25l-1-190h30c1 10-1 24 2 32 10-44 99-50 107 0 11-21 27-35 58-36 85-2 47 119 55 194h-31v-121c0-29-5-49-35-48" id="ac"/><g id="s"><use transform="matrix(0.1111111111111111,0,0,0.1111111111111111,0,0)" xlink:href="#z"/><use transform="matrix(0.1111111111111111,0,0,0.1111111111111111,28.777777777777775,0)" xlink:href="#ab"/><use transform="matrix(0.1111111111111111,0,0,0.1111111111111111,51,0)" xlink:href="#F"/><use transform="matrix(0.1111111111111111,0,0,0.1111111111111111,59.77777777777777,0)" xlink:href="#ac"/></g><g id="t"><use transform="matrix(0.1111111111111111,0,0,0.1111111111111111,0,0)" xlink:href="#N"/><use transform="matrix(0.1111111111111111,0,0,0.1111111111111111,26.666666666666664,0)" xlink:href="#O"/><use transform="matrix(0.1111111111111111,0,0,0.1111111111111111,35.44444444444444,0)" xlink:href="#H"/><use transform="matrix(0.1111111111111111,0,0,0.1111111111111111,46.55555555555556,0)" xlink:href="#D"/></g><g id="u"><use transform="matrix(0.1111111111111111,0,0,0.1111111111111111,0,0)" xlink:href="#Q"/><use transform="matrix(0.1111111111111111,0,0,0.1111111111111111,26.666666666666664,0)" xlink:href="#D"/><use transform="matrix(0.1111111111111111,0,0,0.1111111111111111,48.888888888888886,0)" xlink:href="#F"/><use transform="matrix(0.1111111111111111,0,0,0.1111111111111111,57.666666666666664,0)" xlink:href="#R"/><use transform="matrix(0.1111111111111111,0,0,0.1111111111111111,77.66666666666666,0)" xlink:href="#M"/></g><path d="M96-169c-40 0-48 33-48 73s9 75 48 75c24 0 41-14 43-38l32 2c-6 37-31 61-74 61-59 0-76-41-82-99-10-93 101-131 147-64 4 7 5 14 7 22l-32 3c-4-21-16-35-41-35" id="ad"/><path d="M106-169C34-169 62-67 57 0H25v-261h32l-1 103c12-21 28-36 61-36 89 0 53 116 60 194h-32v-121c2-32-8-49-39-48" id="ae"/><g id="v"><use transform="matrix(0.1111111111111111,0,0,0.1111111111111111,0,0)" xlink:href="#S"/><use transform="matrix(0.1111111111111111,0,0,0.1111111111111111,28.777777777777775,0)" xlink:href="#A"/><use transform="matrix(0.1111111111111111,0,0,0.1111111111111111,51,0)" xlink:href="#G"/><use transform="matrix(0.1111111111111111,0,0,0.1111111111111111,71,0)" xlink:href="#ad"/><use transform="matrix(0.1111111111111111,0,0,0.1111111111111111,91,0)" xlink:href="#M"/><use transform="matrix(0.1111111111111111,0,0,0.1111111111111111,113.22222222222223,0)" xlink:href="#B"/><use transform="matrix(0.1111111111111111,0,0,0.1111111111111111,135.44444444444446,0)" xlink:href="#ae"/><use transform="matrix(0.1111111111111111,0,0,0.1111111111111111,157.66666666666669,0)" xlink:href="#A"/><use transform="matrix(0.1111111111111111,0,0,0.1111111111111111,179.8888888888889,0)" xlink:href="#ad"/><use transform="matrix(0.1111111111111111,0,0,0.1111111111111111,199.8888888888889,0)" xlink:href="#F"/><use transform="matrix(0.1111111111111111,0,0,0.1111111111111111,208.66666666666669,0)" xlink:href="#C"/><use transform="matrix(0.1111111111111111,0,0,0.1111111111111111,230.8888888888889,0)" xlink:href="#D"/></g><path d="M96-269c9-18 26-28 38-43h37v5l-55 38H96zM205 0l-28-72H64L36 0H1l101-248h38L239 0h-34zm-38-99l-47-123c-12 45-31 82-46 123h93" id="af"/><g id="w"><use transform="matrix(0.1851851851851852,0,0,0.1851851851851852,0,0)" xlink:href="#af"/><use transform="matrix(0.1851851851851852,0,0,0.1851851851851852,44.44444444444445,0)" xlink:href="#J"/><use transform="matrix(0.1851851851851852,0,0,0.1851851851851852,66.4814814814815,0)" xlink:href="#U"/><use transform="matrix(0.1851851851851852,0,0,0.1851851851851852,99.81481481481485,0)" xlink:href="#M"/><use transform="matrix(0.1851851851851852,0,0,0.1851851851851852,136.85185185185188,0)" xlink:href="#J"/><use transform="matrix(0.1851851851851852,0,0,0.1851851851851852,158.8888888888889,0)" xlink:href="#A"/></g><g id="x"><use transform="matrix(0.1851851851851852,0,0,0.1851851851851852,0,0)" xlink:href="#C"/><use transform="matrix(0.1851851851851852,0,0,0.1851851851851852,37.03703703703704,0)" xlink:href="#A"/></g><path d="M141-36C126-15 110 5 73 4 37 3 15-17 15-53c-1-64 63-63 125-63 3-35-9-54-41-54-24 1-41 7-42 31l-33-3c5-37 33-52 76-52 45 0 72 20 72 64v82c-1 20 7 32 28 27v20c-31 9-61-2-59-35zM48-53c0 20 12 33 32 33 41-3 63-29 60-74-43 2-92-5-92 41zm117-205c-3 23-9 48-36 47-26-1-65-44-74 0H39c4-23 8-48 36-47s64 44 74 0h16" id="ag"/><g id="y"><use transform="matrix(0.1851851851851852,0,0,0.1851851851851852,0,0)" xlink:href="#S"/><use transform="matrix(0.1851851851851852,0,0,0.1851851851851852,47.96296296296297,0)" xlink:href="#A"/><use transform="matrix(0.1851851851851852,0,0,0.1851851851851852,85,0)" xlink:href="#ad"/><use transform="matrix(0.1851851851851852,0,0,0.1851851851851852,118.33333333333334,0)" xlink:href="#F"/><use transform="matrix(0.1851851851851852,0,0,0.1851851851851852,132.96296296296296,0)" xlink:href="#G"/><use transform="matrix(0.1851851851851852,0,0,0.1851851851851852,166.2962962962963,0)" xlink:href="#ag"/><use transform="matrix(0.1851851851851852,0,0,0.1851851851851852,203.33333333333334,0)" xlink:href="#M"/></g></defs></g></svg>